<?xml version="1.0" encoding="UTF-8"?>
<svg width="297mm" height="210mm" version="1.1" viewBox="0 0 1052.3622 744.09448" xmlns="http://www.w3.org/2000/svg">
 <defs>
  <filter id="bn" color-interpolation-filters="sRGB">
   <feComposite in2="SourceGraphic" k2="1" operator="arithmetic" result="composite1"/>
   <feColorMatrix in="composite1" result="colormatrix1" type="saturate" values="1"/>
   <feFlood flood-color="rgb(100,148,166)" result="flood1"/>
   <feBlend in="flood1" in2="colormatrix1" mode="multiply" result="blend1"/>
   <feBlend in2="blend1" mode="screen" result="blend2"/>
   <feColorMatrix in="blend2" result="colormatrix2" type="saturate" values="1"/>
   <feComposite in="colormatrix2" in2="SourceGraphic" operator="in" result="composite2"/>
  </filter>
  <filter id="bo" color-interpolation-filters="sRGB">
   <feComposite in2="SourceGraphic" k2="1" operator="arithmetic" result="composite1"/>
   <feColorMatrix in="composite1" result="colormatrix1" type="saturate" values="1"/>
   <feFlood flood-color="rgb(100,148,166)" result="flood1"/>
   <feBlend in="flood1" in2="colormatrix1" mode="multiply" result="blend1"/>
   <feBlend in2="blend1" mode="screen" result="blend2"/>
   <feColorMatrix in="blend2" result="colormatrix2" type="saturate" values="1"/>
   <feComposite in="colormatrix2" in2="SourceGraphic" operator="in" result="composite2"/>
  </filter>
  <filter id="bp" color-interpolation-filters="sRGB">
   <feComposite in2="SourceGraphic" k2="1" operator="arithmetic" result="composite1"/>
   <feColorMatrix in="composite1" result="colormatrix1" type="saturate" values="1"/>
   <feFlood flood-color="rgb(100,148,166)" result="flood1"/>
   <feBlend in="flood1" in2="colormatrix1" mode="multiply" result="blend1"/>
   <feBlend in2="blend1" mode="screen" result="blend2"/>
   <feColorMatrix in="blend2" result="colormatrix2" type="saturate" values="1"/>
   <feComposite in="colormatrix2" in2="SourceGraphic" operator="in" result="composite2"/>
  </filter>
  <filter id="bq" color-interpolation-filters="sRGB">
   <feComposite in2="SourceGraphic" k2="1" operator="arithmetic" result="composite1"/>
   <feColorMatrix in="composite1" result="colormatrix1" type="saturate" values="1"/>
   <feFlood flood-color="rgb(100,148,166)" result="flood1"/>
   <feBlend in="flood1" in2="colormatrix1" mode="multiply" result="blend1"/>
   <feBlend in2="blend1" mode="screen" result="blend2"/>
   <feColorMatrix in="blend2" result="colormatrix2" type="saturate" values="1"/>
   <feComposite in="colormatrix2" in2="SourceGraphic" operator="in" result="composite2"/>
  </filter>
  <filter id="br" color-interpolation-filters="sRGB">
   <feComposite in2="SourceGraphic" k2="1" operator="arithmetic" result="composite1"/>
   <feColorMatrix in="composite1" result="colormatrix1" type="saturate" values="1"/>
   <feFlood flood-color="rgb(100,148,166)" result="flood1"/>
   <feBlend in="flood1" in2="colormatrix1" mode="multiply" result="blend1"/>
   <feBlend in2="blend1" mode="screen" result="blend2"/>
   <feColorMatrix in="blend2" result="colormatrix2" type="saturate" values="1"/>
   <feComposite in="colormatrix2" in2="SourceGraphic" operator="in" result="composite2"/>
  </filter>
  <filter id="bs" color-interpolation-filters="sRGB">
   <feComposite in2="SourceGraphic" k2="1" operator="arithmetic" result="composite1"/>
   <feColorMatrix in="composite1" result="colormatrix1" type="saturate" values="1"/>
   <feFlood flood-color="rgb(100,148,166)" result="flood1"/>
   <feBlend in="flood1" in2="colormatrix1" mode="multiply" result="blend1"/>
   <feBlend in2="blend1" mode="screen" result="blend2"/>
   <feColorMatrix in="blend2" result="colormatrix2" type="saturate" values="1"/>
   <feComposite in="colormatrix2" in2="SourceGraphic" operator="in" result="composite2"/>
  </filter>
  <filter id="bt" color-interpolation-filters="sRGB">
   <feComposite in2="SourceGraphic" k2="1" operator="arithmetic" result="composite1"/>
   <feColorMatrix in="composite1" result="colormatrix1" type="saturate" values="1"/>
   <feFlood flood-color="rgb(100,148,166)" result="flood1"/>
   <feBlend in="flood1" in2="colormatrix1" mode="multiply" result="blend1"/>
   <feBlend in2="blend1" mode="screen" result="blend2"/>
   <feColorMatrix in="blend2" result="colormatrix2" type="saturate" values="1"/>
   <feComposite in="colormatrix2" in2="SourceGraphic" operator="in" result="composite2"/>
  </filter>
  <filter id="bu" color-interpolation-filters="sRGB">
   <feComposite in2="SourceGraphic" k2="1" operator="arithmetic" result="composite1"/>
   <feColorMatrix in="composite1" result="colormatrix1" type="saturate" values="1"/>
   <feFlood flood-color="rgb(100,148,166)" result="flood1"/>
   <feBlend in="flood1" in2="colormatrix1" mode="multiply" result="blend1"/>
   <feBlend in2="blend1" mode="screen" result="blend2"/>
   <feColorMatrix in="blend2" result="colormatrix2" type="saturate" values="1"/>
   <feComposite in="colormatrix2" in2="SourceGraphic" operator="in" result="composite2"/>
  </filter>
  <filter id="bv" color-interpolation-filters="sRGB">
   <feComposite in2="SourceGraphic" k2="1" operator="arithmetic" result="composite1"/>
   <feColorMatrix in="composite1" result="colormatrix1" type="saturate" values="1"/>
   <feFlood flood-color="rgb(100,148,166)" result="flood1"/>
   <feBlend in="flood1" in2="colormatrix1" mode="multiply" result="blend1"/>
   <feBlend in2="blend1" mode="screen" result="blend2"/>
   <feColorMatrix in="blend2" result="colormatrix2" type="saturate" values="1"/>
   <feComposite in="colormatrix2" in2="SourceGraphic" operator="in" result="composite2"/>
  </filter>
  <filter id="bw" color-interpolation-filters="sRGB">
   <feComposite in2="SourceGraphic" k2="1" operator="arithmetic" result="composite1"/>
   <feColorMatrix in="composite1" result="colormatrix1" type="saturate" values="1"/>
   <feFlood flood-color="rgb(100,148,166)" result="flood1"/>
   <feBlend in="flood1" in2="colormatrix1" mode="multiply" result="blend1"/>
   <feBlend in2="blend1" mode="screen" result="blend2"/>
   <feColorMatrix in="blend2" result="colormatrix2" type="saturate" values="1"/>
   <feComposite in="colormatrix2" in2="SourceGraphic" operator="in" result="composite2"/>
  </filter>
  <filter id="bx" color-interpolation-filters="sRGB">
   <feComposite in2="SourceGraphic" k2="1" operator="arithmetic" result="composite1"/>
   <feColorMatrix in="composite1" result="colormatrix1" type="saturate" values="1"/>
   <feFlood flood-color="rgb(97,177,123)" result="flood1"/>
   <feBlend in="flood1" in2="colormatrix1" mode="multiply" result="blend1"/>
   <feBlend in2="blend1" mode="screen" result="blend2"/>
   <feColorMatrix in="blend2" result="colormatrix2" type="saturate" values="1"/>
   <feComposite in="colormatrix2" in2="SourceGraphic" operator="in" result="composite2"/>
  </filter>
  <filter id="by" color-interpolation-filters="sRGB">
   <feComposite in2="SourceGraphic" k2="1" operator="arithmetic" result="composite1"/>
   <feColorMatrix in="composite1" result="colormatrix1" type="saturate" values="1"/>
   <feFlood flood-color="rgb(97,177,123)" result="flood1"/>
   <feBlend in="flood1" in2="colormatrix1" mode="multiply" result="blend1"/>
   <feBlend in2="blend1" mode="screen" result="blend2"/>
   <feColorMatrix in="blend2" result="colormatrix2" type="saturate" values="1"/>
   <feComposite in="colormatrix2" in2="SourceGraphic" operator="in" result="composite2"/>
  </filter>
  <filter id="bz" color-interpolation-filters="sRGB">
   <feComposite in2="SourceGraphic" k2="1" operator="arithmetic" result="composite1"/>
   <feColorMatrix in="composite1" result="colormatrix1" type="saturate" values="1"/>
   <feFlood flood-color="rgb(97,177,123)" result="flood1"/>
   <feBlend in="flood1" in2="colormatrix1" mode="multiply" result="blend1"/>
   <feBlend in2="blend1" mode="screen" result="blend2"/>
   <feColorMatrix in="blend2" result="colormatrix2" type="saturate" values="1"/>
   <feComposite in="colormatrix2" in2="SourceGraphic" operator="in" result="composite2"/>
  </filter>
  <filter id="ca" color-interpolation-filters="sRGB">
   <feComposite in2="SourceGraphic" k2="1" operator="arithmetic" result="composite1"/>
   <feColorMatrix in="composite1" result="colormatrix1" type="saturate" values="1"/>
   <feFlood flood-color="rgb(97,177,123)" result="flood1"/>
   <feBlend in="flood1" in2="colormatrix1" mode="multiply" result="blend1"/>
   <feBlend in2="blend1" mode="screen" result="blend2"/>
   <feColorMatrix in="blend2" result="colormatrix2" type="saturate" values="1"/>
   <feComposite in="colormatrix2" in2="SourceGraphic" operator="in" result="composite2"/>
  </filter>
  <filter id="ao" color-interpolation-filters="sRGB">
   <feComposite in2="SourceGraphic" k2="1" operator="arithmetic" result="composite1"/>
   <feColorMatrix in="composite1" result="colormatrix1" type="saturate" values="1"/>
   <feFlood flood-color="rgb(97,177,123)" result="flood1"/>
   <feBlend in="flood1" in2="colormatrix1" mode="multiply" result="blend1"/>
   <feBlend in2="blend1" mode="screen" result="blend2"/>
   <feColorMatrix in="blend2" result="colormatrix2" type="saturate" values="1"/>
   <feComposite in="colormatrix2" in2="SourceGraphic" operator="in" result="composite2"/>
  </filter>
  <filter id="ap" color-interpolation-filters="sRGB">
   <feComposite in2="SourceGraphic" k2="1" operator="arithmetic" result="composite1"/>
   <feColorMatrix in="composite1" result="colormatrix1" type="saturate" values="1"/>
   <feFlood flood-color="rgb(97,177,123)" result="flood1"/>
   <feBlend in="flood1" in2="colormatrix1" mode="multiply" result="blend1"/>
   <feBlend in2="blend1" mode="screen" result="blend2"/>
   <feColorMatrix in="blend2" result="colormatrix2" type="saturate" values="1"/>
   <feComposite in="colormatrix2" in2="SourceGraphic" operator="in" result="composite2"/>
  </filter>
  <filter id="aq" color-interpolation-filters="sRGB">
   <feComposite in2="SourceGraphic" k2="1" operator="arithmetic" result="composite1"/>
   <feColorMatrix in="composite1" result="colormatrix1" type="saturate" values="1"/>
   <feFlood flood-color="rgb(97,177,123)" result="flood1"/>
   <feBlend in="flood1" in2="colormatrix1" mode="multiply" result="blend1"/>
   <feBlend in2="blend1" mode="screen" result="blend2"/>
   <feColorMatrix in="blend2" result="colormatrix2" type="saturate" values="1"/>
   <feComposite in="colormatrix2" in2="SourceGraphic" operator="in" result="composite2"/>
  </filter>
  <filter id="ar" color-interpolation-filters="sRGB">
   <feComposite in2="SourceGraphic" k2="1" operator="arithmetic" result="composite1"/>
   <feColorMatrix in="composite1" result="colormatrix1" type="saturate" values="1"/>
   <feFlood flood-color="rgb(97,177,123)" result="flood1"/>
   <feBlend in="flood1" in2="colormatrix1" mode="multiply" result="blend1"/>
   <feBlend in2="blend1" mode="screen" result="blend2"/>
   <feColorMatrix in="blend2" result="colormatrix2" type="saturate" values="1"/>
   <feComposite in="colormatrix2" in2="SourceGraphic" operator="in" result="composite2"/>
  </filter>
  <filter id="as" color-interpolation-filters="sRGB">
   <feComposite in2="SourceGraphic" k2="1" operator="arithmetic" result="composite1"/>
   <feColorMatrix in="composite1" result="colormatrix1" type="saturate" values="1"/>
   <feFlood flood-color="rgb(97,177,123)" result="flood1"/>
   <feBlend in="flood1" in2="colormatrix1" mode="multiply" result="blend1"/>
   <feBlend in2="blend1" mode="screen" result="blend2"/>
   <feColorMatrix in="blend2" result="colormatrix2" type="saturate" values="1"/>
   <feComposite in="colormatrix2" in2="SourceGraphic" operator="in" result="composite2"/>
  </filter>
  <filter id="at" color-interpolation-filters="sRGB">
   <feComposite in2="SourceGraphic" k2="1" operator="arithmetic" result="composite1"/>
   <feColorMatrix in="composite1" result="colormatrix1" type="saturate" values="1"/>
   <feFlood flood-color="rgb(97,177,123)" result="flood1"/>
   <feBlend in="flood1" in2="colormatrix1" mode="multiply" result="blend1"/>
   <feBlend in2="blend1" mode="screen" result="blend2"/>
   <feColorMatrix in="blend2" result="colormatrix2" type="saturate" values="1"/>
   <feComposite in="colormatrix2" in2="SourceGraphic" operator="in" result="composite2"/>
  </filter>
  <filter id="au" color-interpolation-filters="sRGB">
   <feComposite in2="SourceGraphic" k2="1" operator="arithmetic" result="composite1"/>
   <feColorMatrix in="composite1" result="colormatrix1" type="saturate" values="1"/>
   <feFlood flood-color="rgb(239,120,110)" result="flood1"/>
   <feBlend in="flood1" in2="colormatrix1" mode="multiply" result="blend1"/>
   <feBlend in2="blend1" mode="screen" result="blend2"/>
   <feColorMatrix in="blend2" result="colormatrix2" type="saturate" values="1"/>
   <feComposite in="colormatrix2" in2="SourceGraphic" operator="in" result="composite2"/>
  </filter>
  <filter id="av" color-interpolation-filters="sRGB">
   <feComposite in2="SourceGraphic" k2="1" operator="arithmetic" result="composite1"/>
   <feColorMatrix in="composite1" result="colormatrix1" type="saturate" values="1"/>
   <feFlood flood-color="rgb(239,120,110)" result="flood1"/>
   <feBlend in="flood1" in2="colormatrix1" mode="multiply" result="blend1"/>
   <feBlend in2="blend1" mode="screen" result="blend2"/>
   <feColorMatrix in="blend2" result="colormatrix2" type="saturate" values="1"/>
   <feComposite in="colormatrix2" in2="SourceGraphic" operator="in" result="composite2"/>
  </filter>
  <filter id="aw" color-interpolation-filters="sRGB">
   <feComposite in2="SourceGraphic" k2="1" operator="arithmetic" result="composite1"/>
   <feColorMatrix in="composite1" result="colormatrix1" type="saturate" values="1"/>
   <feFlood flood-color="rgb(239,120,110)" result="flood1"/>
   <feBlend in="flood1" in2="colormatrix1" mode="multiply" result="blend1"/>
   <feBlend in2="blend1" mode="screen" result="blend2"/>
   <feColorMatrix in="blend2" result="colormatrix2" type="saturate" values="1"/>
   <feComposite in="colormatrix2" in2="SourceGraphic" operator="in" result="composite2"/>
  </filter>
  <filter id="ax" color-interpolation-filters="sRGB">
   <feComposite in2="SourceGraphic" k2="1" operator="arithmetic" result="composite1"/>
   <feColorMatrix in="composite1" result="colormatrix1" type="saturate" values="1"/>
   <feFlood flood-color="rgb(239,120,110)" result="flood1"/>
   <feBlend in="flood1" in2="colormatrix1" mode="multiply" result="blend1"/>
   <feBlend in2="blend1" mode="screen" result="blend2"/>
   <feColorMatrix in="blend2" result="colormatrix2" type="saturate" values="1"/>
   <feComposite in="colormatrix2" in2="SourceGraphic" operator="in" result="composite2"/>
  </filter>
  <filter id="ay" color-interpolation-filters="sRGB">
   <feComposite in2="SourceGraphic" k2="1" operator="arithmetic" result="composite1"/>
   <feColorMatrix in="composite1" result="colormatrix1" type="saturate" values="1"/>
   <feFlood flood-color="rgb(239,120,110)" result="flood1"/>
   <feBlend in="flood1" in2="colormatrix1" mode="multiply" result="blend1"/>
   <feBlend in2="blend1" mode="screen" result="blend2"/>
   <feColorMatrix in="blend2" result="colormatrix2" type="saturate" values="1"/>
   <feComposite in="colormatrix2" in2="SourceGraphic" operator="in" result="composite2"/>
  </filter>
  <filter id="az" color-interpolation-filters="sRGB">
   <feComposite in2="SourceGraphic" k2="1" operator="arithmetic" result="composite1"/>
   <feColorMatrix in="composite1" result="colormatrix1" type="saturate" values="1"/>
   <feFlood flood-color="rgb(239,120,110)" result="flood1"/>
   <feBlend in="flood1" in2="colormatrix1" mode="multiply" result="blend1"/>
   <feBlend in2="blend1" mode="screen" result="blend2"/>
   <feColorMatrix in="blend2" result="colormatrix2" type="saturate" values="1"/>
   <feComposite in="colormatrix2" in2="SourceGraphic" operator="in" result="composite2"/>
  </filter>
  <filter id="ba" color-interpolation-filters="sRGB">
   <feComposite in2="SourceGraphic" k2="1" operator="arithmetic" result="composite1"/>
   <feColorMatrix in="composite1" result="colormatrix1" type="saturate" values="1"/>
   <feFlood flood-color="rgb(239,120,110)" result="flood1"/>
   <feBlend in="flood1" in2="colormatrix1" mode="multiply" result="blend1"/>
   <feBlend in2="blend1" mode="screen" result="blend2"/>
   <feColorMatrix in="blend2" result="colormatrix2" type="saturate" values="1"/>
   <feComposite in="colormatrix2" in2="SourceGraphic" operator="in" result="composite2"/>
  </filter>
  <filter id="bb" color-interpolation-filters="sRGB">
   <feComposite in2="SourceGraphic" k2="1" operator="arithmetic" result="composite1"/>
   <feColorMatrix in="composite1" result="colormatrix1" type="saturate" values="1"/>
   <feFlood flood-color="rgb(239,120,110)" result="flood1"/>
   <feBlend in="flood1" in2="colormatrix1" mode="multiply" result="blend1"/>
   <feBlend in2="blend1" mode="screen" result="blend2"/>
   <feColorMatrix in="blend2" result="colormatrix2" type="saturate" values="1"/>
   <feComposite in="colormatrix2" in2="SourceGraphic" operator="in" result="composite2"/>
  </filter>
  <filter id="bc" color-interpolation-filters="sRGB">
   <feComposite in2="SourceGraphic" k2="1" operator="arithmetic" result="composite1"/>
   <feColorMatrix in="composite1" result="colormatrix1" type="saturate" values="1"/>
   <feFlood flood-color="rgb(239,120,110)" result="flood1"/>
   <feBlend in="flood1" in2="colormatrix1" mode="multiply" result="blend1"/>
   <feBlend in2="blend1" mode="screen" result="blend2"/>
   <feColorMatrix in="blend2" result="colormatrix2" type="saturate" values="1"/>
   <feComposite in="colormatrix2" in2="SourceGraphic" operator="in" result="composite2"/>
  </filter>
  <filter id="bd" color-interpolation-filters="sRGB">
   <feComposite in2="SourceGraphic" k2="1" operator="arithmetic" result="composite1"/>
   <feColorMatrix in="composite1" result="colormatrix1" type="saturate" values="1"/>
   <feFlood flood-color="rgb(239,120,110)" result="flood1"/>
   <feBlend in="flood1" in2="colormatrix1" mode="multiply" result="blend1"/>
   <feBlend in2="blend1" mode="screen" result="blend2"/>
   <feColorMatrix in="blend2" result="colormatrix2" type="saturate" values="1"/>
   <feComposite in="colormatrix2" in2="SourceGraphic" operator="in" result="composite2"/>
  </filter>
  <filter id="be" color-interpolation-filters="sRGB">
   <feComposite in2="SourceGraphic" k2="1" operator="arithmetic" result="composite1"/>
   <feColorMatrix in="composite1" result="colormatrix1" type="saturate" values="1"/>
   <feFlood flood-color="rgb(239,222,114)" result="flood1"/>
   <feBlend in="flood1" in2="colormatrix1" mode="multiply" result="blend1"/>
   <feBlend in2="blend1" mode="screen" result="blend2"/>
   <feColorMatrix in="blend2" result="colormatrix2" type="saturate" values="1"/>
   <feComposite in="colormatrix2" in2="SourceGraphic" operator="in" result="composite2"/>
  </filter>
  <filter id="bf" color-interpolation-filters="sRGB">
   <feComposite in2="SourceGraphic" k2="1" operator="arithmetic" result="composite1"/>
   <feColorMatrix in="composite1" result="colormatrix1" type="saturate" values="1"/>
   <feFlood flood-color="rgb(239,222,114)" result="flood1"/>
   <feBlend in="flood1" in2="colormatrix1" mode="multiply" result="blend1"/>
   <feBlend in2="blend1" mode="screen" result="blend2"/>
   <feColorMatrix in="blend2" result="colormatrix2" type="saturate" values="1"/>
   <feComposite in="colormatrix2" in2="SourceGraphic" operator="in" result="composite2"/>
  </filter>
  <filter id="bg" color-interpolation-filters="sRGB">
   <feComposite in2="SourceGraphic" k2="1" operator="arithmetic" result="composite1"/>
   <feColorMatrix in="composite1" result="colormatrix1" type="saturate" values="1"/>
   <feFlood flood-color="rgb(239,222,114)" result="flood1"/>
   <feBlend in="flood1" in2="colormatrix1" mode="multiply" result="blend1"/>
   <feBlend in2="blend1" mode="screen" result="blend2"/>
   <feColorMatrix in="blend2" result="colormatrix2" type="saturate" values="1"/>
   <feComposite in="colormatrix2" in2="SourceGraphic" operator="in" result="composite2"/>
  </filter>
  <filter id="bh" color-interpolation-filters="sRGB">
   <feComposite in2="SourceGraphic" k2="1" operator="arithmetic" result="composite1"/>
   <feColorMatrix in="composite1" result="colormatrix1" type="saturate" values="1"/>
   <feFlood flood-color="rgb(239,222,114)" result="flood1"/>
   <feBlend in="flood1" in2="colormatrix1" mode="multiply" result="blend1"/>
   <feBlend in2="blend1" mode="screen" result="blend2"/>
   <feColorMatrix in="blend2" result="colormatrix2" type="saturate" values="1"/>
   <feComposite in="colormatrix2" in2="SourceGraphic" operator="in" result="composite2"/>
  </filter>
  <filter id="bi" color-interpolation-filters="sRGB">
   <feComposite in2="SourceGraphic" k2="1" operator="arithmetic" result="composite1"/>
   <feColorMatrix in="composite1" result="colormatrix1" type="saturate" values="1"/>
   <feFlood flood-color="rgb(239,222,114)" result="flood1"/>
   <feBlend in="flood1" in2="colormatrix1" mode="multiply" result="blend1"/>
   <feBlend in2="blend1" mode="screen" result="blend2"/>
   <feColorMatrix in="blend2" result="colormatrix2" type="saturate" values="1"/>
   <feComposite in="colormatrix2" in2="SourceGraphic" operator="in" result="composite2"/>
  </filter>
  <filter id="bj" color-interpolation-filters="sRGB">
   <feComposite in2="SourceGraphic" k2="1" operator="arithmetic" result="composite1"/>
   <feColorMatrix in="composite1" result="colormatrix1" type="saturate" values="1"/>
   <feFlood flood-color="rgb(239,222,114)" result="flood1"/>
   <feBlend in="flood1" in2="colormatrix1" mode="multiply" result="blend1"/>
   <feBlend in2="blend1" mode="screen" result="blend2"/>
   <feColorMatrix in="blend2" result="colormatrix2" type="saturate" values="1"/>
   <feComposite in="colormatrix2" in2="SourceGraphic" operator="in" result="composite2"/>
  </filter>
  <filter id="bk" color-interpolation-filters="sRGB">
   <feComposite in2="SourceGraphic" k2="1" operator="arithmetic" result="composite1"/>
   <feColorMatrix in="composite1" result="colormatrix1" type="saturate" values="1"/>
   <feFlood flood-color="rgb(239,222,114)" result="flood1"/>
   <feBlend in="flood1" in2="colormatrix1" mode="multiply" result="blend1"/>
   <feBlend in2="blend1" mode="screen" result="blend2"/>
   <feColorMatrix in="blend2" result="colormatrix2" type="saturate" values="1"/>
   <feComposite in="colormatrix2" in2="SourceGraphic" operator="in" result="composite2"/>
  </filter>
  <filter id="bl" color-interpolation-filters="sRGB">
   <feComposite in2="SourceGraphic" k2="1" operator="arithmetic" result="composite1"/>
   <feColorMatrix in="composite1" result="colormatrix1" type="saturate" values="1"/>
   <feFlood flood-color="rgb(239,222,114)" result="flood1"/>
   <feBlend in="flood1" in2="colormatrix1" mode="multiply" result="blend1"/>
   <feBlend in2="blend1" mode="screen" result="blend2"/>
   <feColorMatrix in="blend2" result="colormatrix2" type="saturate" values="1"/>
   <feComposite in="colormatrix2" in2="SourceGraphic" operator="in" result="composite2"/>
  </filter>
  <filter id="bm" color-interpolation-filters="sRGB">
   <feComposite in2="SourceGraphic" k2="1" operator="arithmetic" result="composite1"/>
   <feColorMatrix in="composite1" result="colormatrix1" type="saturate" values="1"/>
   <feFlood flood-color="rgb(239,222,114)" result="flood1"/>
   <feBlend in="flood1" in2="colormatrix1" mode="multiply" result="blend1"/>
   <feBlend in2="blend1" mode="screen" result="blend2"/>
   <feColorMatrix in="blend2" result="colormatrix2" type="saturate" values="1"/>
   <feComposite in="colormatrix2" in2="SourceGraphic" operator="in" result="composite2"/>
  </filter>
  <filter id="cb" color-interpolation-filters="sRGB">
   <feComposite in2="SourceGraphic" k2="1" operator="arithmetic" result="composite1"/>
   <feColorMatrix in="composite1" result="colormatrix1" type="saturate" values="1"/>
   <feFlood flood-color="rgb(239,222,114)" result="flood1"/>
   <feBlend in="flood1" in2="colormatrix1" mode="multiply" result="blend1"/>
   <feBlend in2="blend1" mode="screen" result="blend2"/>
   <feColorMatrix in="blend2" result="colormatrix2" type="saturate" values="1"/>
   <feComposite in="colormatrix2" in2="SourceGraphic" operator="in" result="composite2"/>
  </filter>
 </defs>
 <g transform="translate(0 -308.27)">
  <rect x="17.569" y="396.09" width="1017.2" height="568.45"/>
  <g transform="matrix(1.327 0 0 1.327 37.974 80.1)">
   <g transform="matrix(.55428 0 0 .55428 270.94 238.73)">
    <circle cx="237" cy="113.35" r="56.575" fill="#ac9393"/>
    <path d="m238.86 72.548c3.0964-3.0964 8.0821-3.096 11.178 3.7e-4l27.759 27.759c3.0964 3.0964 3.0968 8.0821 3.8e-4 11.178l-42.664 42.664c-3.0964 3.0964-8.0825 3.0964-11.179 0l-27.759-27.759c-3.0964-3.0964-3.0964-8.0825 0-11.179l42.664-42.664zm-0.24959 5.4666-36.948 36.948c-0.25863 0.25865-0.49163 0.53282-0.70039 0.81894l36.095-2.3718 2.3726-36.096c-0.28614 0.20875-0.5603 0.44175-0.81894 0.70038zm7.8782-1.297-2.5921 39.436c-0.0695 1.0576-0.59546 2.0315-1.3707 2.7247-0.69323 0.77528-1.6664 1.3005-2.7239 1.37l-39.436 2.5921c0.32301 0.64946 0.75365 1.2598 1.2962 1.8024l24.04 24.04c2.6816 2.6816 6.999 2.6816 9.6806 0l36.948-36.948c2.6816-2.6816 2.682-6.9994 3.8e-4 -9.681l-24.04-24.04c-0.54274-0.54274-1.1532-0.97364-1.8028-1.2967z" fill="#e3dbdb"/>
    <path d="m279.87 104.95c0.33631 2.4507-0.39084 4.8662-2.3665 6.4427-13.908 14.563-28.189 28.779-42.7 42.742-2.4347 2.8779-6.828 2.7173-9.8616 1.0218 4.5911 5.1011 9.602 9.8191 14.403 14.725 18.039-0.7892 35.378-10.678 45.03-25.968 5.3301-8.2214 8.3931-17.825 9.1075-27.581-4.5878-4.5831-9.1757-9.1661-13.764-13.749 0.0502 0.7888 0.10045 1.5776 0.15068 2.3664z" fill="#916f6f"/>
   </g>
   <g transform="matrix(.55428 0 0 .55428 270.94 237.96)">
    <circle cx="113.56" cy="250.75" r="56.575" fill="#ac9393"/>
    <path d="m134.61 221.4c-1.7747-1.7748-4.632-1.7748-6.4067-1e-5l-36.24 36.24c-1.7747 1.7747-1.7747 4.632 1e-5 6.4067l8.2987 8.2988c1.7748 1.7748 4.632 1.7748 6.4067 0l36.24-36.24c1.7747-1.7747 1.7747-4.632 0-6.4067l-8.2988-8.2988zm-46.451 40.339-5.2745 19.685 19.685-5.2744-14.411-14.411z" fill="#e3dbdb"/>
    <path d="m143.45 230.2c0.95466 1.7118 1.1548 4.1762-0.48325 5.5572-9.5192 9.9357-19.364 19.555-29.102 29.275-2.8738 2.7553-5.613 5.7072-8.6358 8.275-1.2234 0.62734-1.4189 2.6276-2.8529 2.8981-6.3407 1.6717-12.732 3.3766-19.042 5.1149 4.7558 5.2804 9.9318 10.182 14.915 15.251 3.5563 3.4468 6.903 7.1323 10.675 10.344 1.3714 0.55999 2.9784 0.17175 4.4368 0.32809 18.048 0.26053 35.856-8.931 46.228-23.68 5.701-7.9386 9.1406-17.387 10.253-27.076-8.7956-8.7568-17.532-17.627-26.392-26.287z" fill="#916f6f"/>
   </g>
   <g transform="matrix(.55428 0 0 .55428 270.94 239.63)">
    <circle cx="113.56" cy="383.73" r="56.575" fill="#ac9393"/>
    <path d="m130.28 344.65c-5.7073-0.20009-10.906 2.9874-14.46 7.2642-11.379 11.313-22.956 22.448-33.99 34.093-7.006 8.4326-6.4143 21.853 1.2182 29.692 7.6402 8.5912 22.102 9.6004 30.792 2.0554 12.287-11.914 24.439-23.987 36.345-36.279-0.70793-1.8465-2.4686-3.2368-4.0121-4.3867-1.7622 0.10304-2.8932 2.5869-4.3932 3.5993-11.184 10.901-21.959 22.25-33.381 32.891-6.8605 4.6013-16.938 2.8081-21.735-3.9333-4.8999-6.4428-3.7982-16.409 2.4545-21.585 11.373-11.544 22.733-23.122 34.417-34.351 5.6655-4.8836 15.576-1.9063 17.586 5.3379 1.5513 4.7838-0.60682 10.062-4.5677 13.078-9.0089 8.9576-17.75 18.231-27.14 26.778-4.5652 2.6338-10.724-2.3165-9.0939-7.3463 2.0054-3.9776 6.0412-6.61 8.9051-9.9656 6.9491-6.9681 13.908-13.927 20.859-20.894-1.8144-1.0631-3.6558-4.9902-5.4502-3.9813-9.6671 9.8682-19.792 19.337-29.112 29.519-4.0026 5.7771-1.9378 14.373 4.0193 17.977 5.2221 3.6155 12.931 2.383 16.862-2.5834 9.608-9.498 19.407-18.843 28.553-28.782 5.7529-7.5735 3.781-19.586-4.112-24.922-3.0513-2.1824-6.799-3.4223-10.564-3.2744z" fill="#e3dbdb"/>
    <path d="m129.05 351.55c-4.5613 0.18615-7.4017 4.503-10.629 7.1756-10.61 10.644-21.476 21.058-31.633 32.137-5.883 7.205-3.0472 19.166 5.1865 23.312 4.1627 2.0737 9.3358 2.4689 13.699 0.85456 6.4979-4.1485 11.477-10.231 17.093-15.444 7.7221-7.5114 15.23-15.378 23.251-22.502 1.5741 1.0325 3.2453 2.5139 3.9277 4.2642-10.185 11.182-21.164 21.635-31.964 32.225-3.9129 3.879-8.1035 8.2371-13.959 8.6787-5.6284 0.8724-11.519 0.196-16.461-2.7826-2.4079-1.315 1.5009 1.9539 1.8555 2.5616 5.875 6.0604 11.835 12.038 17.757 18.052 8.5258 0.075 17.294 0.1021 25.327-3.1819 17.473-6.0335 31.255-21.237 35.737-39.147 2.0654-6.8466 1.6848-14.047 1.6969-21.105-8.0809-7.9312-15.955-16.176-24.256-23.822 3.1158 6.0915 3.6732 14.216-0.73617 19.846-9.5547 10.205-19.428 20.133-29.591 29.733-2.4719 2.6085-5.9246 4.0379-9.523 3.6558-9.5553 0.3499-16.191-12.722-9.8422-20.025 8.4426-9.5278 17.691-18.319 26.74-27.266 1.0947-0.59411 2.1999-3.2783 3.5427-1.6559 0.97643 1.2526 4.2646 2.6927 3.3728 4.0855-9.3382 9.61-19.184 18.751-28.073 28.784-2.026 1.826-1.8164 4.7244-0.26045 6.7856 2.2043 3.3101 7.7114 3.6603 10.062 0.29131 9.3205-9.102 18.8-18.083 27.532-27.756 4.4955-4.7744 2.9303-13.361-2.8228-16.44-2.1141-1.2488-4.6367-1.3667-7.0282-1.3138z" fill="#916f6f"/>
   </g>
   <g transform="matrix(.55428 0 0 .55428 270.94 238.73)">
    <circle cx="113.56" cy="113.35" r="56.575" fill="#ac9393"/>
    <path d="m142.58 85.472a21.748 21.748 0 0 1 -3.1e-4 30.757 21.748 21.748 0 0 1 -29.652 1.0282l-4.8004 4.8004 1.3701 1.3701-24.167 24.167-7.1559-7.1559 24.167-24.167 1.3701 1.3701 5.1442-5.1442a21.748 21.748 0 0 1 2.9678 -27.025 21.748 21.748 0 0 1 30.757 -3.2e-4zm-3.3499 3.3499a17.011 17.011 0 0 0 -24.057 3.2e-4 17.011 17.011 0 0 0 0 24.057 17.011 17.011 0 0 0 24.057 3.2e-4 17.011 17.011 0 0 0 0 -24.057z" fill="#e3dbdb"/>
    <path d="m146.05 89.549c2.1743 4.505 3.4297 9.5928 2.5992 14.62-1.479 11.823-14.093 20.709-25.721 17.987-3.5888-0.69875-6.9558-2.4176-9.8344-4.5333-1.6797 1.1969-3.5118 2.7764-4.4364 4.6252 1.3064 1.5054-1.3335 2.8311-2.0532 3.9868-6.9469 7.0842-14.061 14.003-21.085 21.01 7.4701 7.4853 14.94 14.971 22.41 22.456 8.5651 0.0888 17.348-0.14054 25.374-3.508 20.307-7.4141 35.449-27.336 36.494-49.02 0.56385-2.4625 0.12413-4.5511-2.0858-5.9803-7.2075-7.2029-14.25-14.75-21.661-21.645z" fill="#916f6f"/>
    <path d="m123.48 90.617v6.9215h-6.9223v6.6209h6.9223v6.9223h6.6209v-6.9223h6.9223v-6.6209h-6.9223v-6.9215h-6.6209z" fill="#e3dbdb"/>
   </g>
   <g transform="matrix(.55428 0 0 .55428 270.94 238.41)">
    <circle cx="237.73" cy="249.28" r="56.575" fill="#ac9393"/>
    <path d="m266.75 221.4a21.748 21.748 0 0 1 -3.1e-4 30.757 21.748 21.748 0 0 1 -29.652 1.0282l-4.8004 4.8004 1.3701 1.3701-24.167 24.167-7.1559-7.1559 24.167-24.167 1.3701 1.3701 5.1442-5.1442a21.748 21.748 0 0 1 2.9678 -27.025 21.748 21.748 0 0 1 30.757 -3.2e-4zm-3.3499 3.3499a17.011 17.011 0 0 0 -24.057 3.2e-4 17.011 17.011 0 0 0 0 24.057 17.011 17.011 0 0 0 24.057 3.2e-4 17.011 17.011 0 0 0 0 -24.057z" fill="#e3dbdb"/>
    <path d="m270.23 225.48c2.1743 4.505 3.4297 9.5928 2.5992 14.62-1.479 11.823-14.093 20.709-25.721 17.987-3.5888-0.69875-6.9558-2.4176-9.8344-4.5333-1.6797 1.1969-3.5118 2.7764-4.4364 4.6252 1.3064 1.5054-1.3335 2.8311-2.0532 3.9868-6.9469 7.0842-14.061 14.003-21.085 21.01 7.4701 7.4853 14.94 14.971 22.41 22.456 8.5651 0.0888 17.348-0.14054 25.374-3.508 20.307-7.4141 35.449-27.336 36.494-49.02 0.56385-2.4625 0.12413-4.5511-2.0858-5.9803-7.2075-7.2029-14.25-14.75-21.661-21.645z" fill="#916f6f"/>
    <rect transform="rotate(90)" x="233.35" y="-261.82" width="6.621" height="20.465" fill="#e3dbdb"/>
   </g>
   <g transform="matrix(.55428 0 0 .55428 270.94 239.51)">
    <circle cx="237.73" cy="382.64" r="56.575" fill="#ac9393"/>
    <path d="m236.81 361.97-35.799 20.668 35.799 20.67v-20.621l35.717 20.621v-41.338l-35.717 20.619v-20.619z" fill="#e3dbdb"/>
    <path d="m272.77 382.42c-0.18724 6.7571 0.34567 13.821-0.55115 20.398-11.824-6.2642-23.334-13.444-35.018-19.747-0.55503 6.5281 0.37926 13.42-0.72103 19.747-11.84-6.2871-23.404-13.489-35.111-19.763 17.496 18.059 35.449 35.671 53.178 53.501 19.316-5.9575 34.69-22.872 38.465-42.776 0.48361-3.4323 1.5454-7.3282 0.96435-10.581-7.0687-7.0631-14.137-14.126-21.206-21.189v20.411z" fill="#916f6f"/>
   </g>
   <g transform="matrix(.55428 0 0 .55428 270.94 238.77)">
    <circle transform="scale(-1,1)" cx="-237.73" cy="519.31" r="56.575" fill="#ac9393"/>
    <path d="m238.66 498.64 35.799 20.668-35.799 20.67v-20.621l-35.717 20.621v-41.338l35.717 20.619v-20.619z" fill="#e3dbdb"/>
    <path d="m274.33 519.33c-11.835 6.9027-23.717 13.724-35.577 20.584-0.0499-6.661 0.0303-13.324-0.12202-19.984 0.11727-0.64538-0.3161-0.43631-0.6412-0.16847-11.637 6.6951-23.3 13.393-34.886 20.146 11.06 11.236 22.223 22.373 33.403 33.491 0.87783 0.81283 1.6974 1.7858 2.6216 2.493 4.8178-0.25346 9.6341-0.88589 14.272-2.252 14.104-3.9988 26.439-13.776 33.58-26.576 1.9255-3.3854 3.4865-6.9736 4.6766-10.681-5.5962-5.5433-11.08-11.203-16.775-16.645-0.1769-0.13452-0.3365-0.34027-0.55186-0.40592z" fill="#916f6f"/>
   </g>
   <g transform="matrix(.55428 0 0 .55428 270.94 239.86)">
    <circle transform="scale(-1,1)" cx="-110.73" cy="519.31" r="56.575" fill="#ac9393"/>
    <path transform="matrix(0 1 -1 0 721.91 357.04)" d="m184.18 630.15h-43.822l21.911-37.951z" fill="#e3dbdb"/>
    <path d="m110.95 530.13c-6.2762 3.6448-12.652 7.2731-18.873 10.917 8.962 9.2816 18.13 18.364 27.255 27.486 1.9228 1.8418 3.7376 3.83 5.7836 5.5244 4.6969-1.3947 9.3204-3.1222 13.564-5.6001 8.1993-4.6479 15.143-11.406 20.153-19.379 0.65437-0.55413-0.56778-0.96648-0.78809-1.4421-9.39-9.5061-18.894-18.898-28.348-28.341-6.2488 3.6115-12.498 7.223-18.746 10.835z" fill="#916f6f"/>
   </g>
   <g transform="matrix(.55428 0 0 .55428 270.94 238.73)">
    <circle transform="scale(-1,1)" cx="-110.73" cy="657.35" r="56.575" fill="#ac9393"/>
    <path d="m89.712 631.42v51.935h17.311v-51.935h-17.311zm23.304 0v51.935h17.312v-51.935h-17.312z" fill="#e3dbdb"/>
    <path d="m106.97 657.34v26.04h-17.125c9.9437 9.9441 19.887 19.888 29.831 29.832 12.105-2.0174 23.567-7.9318 31.994-16.887 6.8975-7.2692 11.895-16.352 14.124-26.137 0.16738-0.94518 0.60596-2.0012 0.43395-2.9064-11.954-11.948-23.907-23.895-35.861-35.842v51.94h-17.337v-46.023c-2.0203-2.0186-4.0406-4.0373-6.0609-6.0559v26.039z" fill="#916f6f"/>
   </g>
   <g transform="matrix(.55428 0 0 .55428 270.94 238.73)">
    <circle transform="scale(-1,1)" cx="-242.37" cy="654.73" r="56.575" fill="#ac9393"/>
    <path d="m231.38 688.99c-8.9732-3.1294-16.579-9.877-20.124-17.855-6.2004-13.95-3.9451-27.842 6.3298-38.988 4.4896-4.8707 8.2699-5.7429 11.141-2.5705 2.561 2.8299 1.98 5.7756-1.9055 9.6612-15.051 15.051-5.4258 39.485 15.554 39.485s30.604-24.434 15.554-39.485c-3.9492-3.9492-4.5384-7.295-1.7319-9.8348 3.1896-2.8866 6.5526-2.0451 10.967 2.7442 10.275 11.147 12.53 25.038 6.3298 38.988-6.7324 15.147-26.204 23.403-42.113 17.855zm6.9964-34.255c-1.8221-1.8221-1.999-3.3316-1.999-17.057 0-8.4685 0.45277-15.904 1.0346-16.991 1.3616-2.5441 7.0399-2.6085 9.3051-0.10541 1.3862 1.5317 1.6541 4.2841 1.6541 16.991 0 13.831-0.17567 15.339-1.999 17.162-1.0994 1.0994-2.8985 1.999-3.998 1.999s-2.8985-0.89954-3.998-1.999z" fill="#e3dbdb"/>
    <path d="m269.66 634.85c3.3755 4.887 6.117 10.372 6.7722 16.371 2.1245 14.342-5.5522 30.036-19.108 35.852-10.955 5.4906-24.858 4.6597-34.769-2.6719-0.98606-0.79751-2.8448-1.7562-0.91492-0.0292 8.2297 8.35 16.282 16.912 24.949 24.808 3.0012 3.029 7.2391 0.57891 10.699-8.1e-4 20.624-5.4798 37.139-23.538 40.724-44.582 0.86439-2.531-2.7398-3.7276-3.9341-5.6438-8.1244-8.026-16.116-16.358-24.419-24.104z" fill="#916f6f"/>
   </g>
   <g transform="matrix(.55428 0 0 .55428 418.55 238.73)" filter="url(#bw)">
    <circle cx="237" cy="113.35" r="56.575" fill="#ac9393"/>
    <path d="m238.86 72.548c3.0964-3.0964 8.0821-3.096 11.178 3.7e-4l27.759 27.759c3.0964 3.0964 3.0968 8.0821 3.8e-4 11.178l-42.664 42.664c-3.0964 3.0964-8.0825 3.0964-11.179 0l-27.759-27.759c-3.0964-3.0964-3.0964-8.0825 0-11.179l42.664-42.664zm-0.24959 5.4666-36.948 36.948c-0.25863 0.25865-0.49163 0.53282-0.70039 0.81894l36.095-2.3718 2.3726-36.096c-0.28614 0.20875-0.5603 0.44175-0.81894 0.70038zm7.8782-1.297-2.5921 39.436c-0.0695 1.0576-0.59546 2.0315-1.3707 2.7247-0.69323 0.77528-1.6664 1.3005-2.7239 1.37l-39.436 2.5921c0.32301 0.64946 0.75365 1.2598 1.2962 1.8024l24.04 24.04c2.6816 2.6816 6.999 2.6816 9.6806 0l36.948-36.948c2.6816-2.6816 2.682-6.9994 3.8e-4 -9.681l-24.04-24.04c-0.54274-0.54274-1.1532-0.97364-1.8028-1.2967z" fill="#e3dbdb"/>
    <path d="m279.87 104.95c0.33631 2.4507-0.39084 4.8662-2.3665 6.4427-13.908 14.563-28.189 28.779-42.7 42.742-2.4347 2.8779-6.828 2.7173-9.8616 1.0218 4.5911 5.1011 9.602 9.8191 14.403 14.725 18.039-0.7892 35.378-10.678 45.03-25.968 5.3301-8.2214 8.3931-17.825 9.1075-27.581-4.5878-4.5831-9.1757-9.1661-13.764-13.749 0.0502 0.7888 0.10045 1.5776 0.15068 2.3664z" fill="#916f6f"/>
   </g>
   <g transform="matrix(.55428 0 0 .55428 418.55 237.96)" filter="url(#bv)">
    <circle cx="113.56" cy="250.75" r="56.575" fill="#ac9393"/>
    <path d="m134.61 221.4c-1.7747-1.7748-4.632-1.7748-6.4067-1e-5l-36.24 36.24c-1.7747 1.7747-1.7747 4.632 1e-5 6.4067l8.2987 8.2988c1.7748 1.7748 4.632 1.7748 6.4067 0l36.24-36.24c1.7747-1.7747 1.7747-4.632 0-6.4067l-8.2988-8.2988zm-46.451 40.339-5.2745 19.685 19.685-5.2744-14.411-14.411z" fill="#e3dbdb"/>
    <path d="m143.45 230.2c0.95466 1.7118 1.1548 4.1762-0.48325 5.5572-9.5192 9.9357-19.364 19.555-29.102 29.275-2.8738 2.7553-5.613 5.7072-8.6358 8.275-1.2234 0.62734-1.4189 2.6276-2.8529 2.8981-6.3407 1.6717-12.732 3.3766-19.042 5.1149 4.7558 5.2804 9.9318 10.182 14.915 15.251 3.5563 3.4468 6.903 7.1323 10.675 10.344 1.3714 0.55999 2.9784 0.17175 4.4368 0.32809 18.048 0.26053 35.856-8.931 46.228-23.68 5.701-7.9386 9.1406-17.387 10.253-27.076-8.7956-8.7568-17.532-17.627-26.392-26.287z" fill="#916f6f"/>
   </g>
   <g transform="matrix(.55428 0 0 .55428 418.55 239.63)" filter="url(#bu)">
    <circle cx="113.56" cy="383.73" r="56.575" fill="#ac9393"/>
    <path d="m130.28 344.65c-5.7073-0.20009-10.906 2.9874-14.46 7.2642-11.379 11.313-22.956 22.448-33.99 34.093-7.006 8.4326-6.4143 21.853 1.2182 29.692 7.6402 8.5912 22.102 9.6004 30.792 2.0554 12.287-11.914 24.439-23.987 36.345-36.279-0.70793-1.8465-2.4686-3.2368-4.0121-4.3867-1.7622 0.10304-2.8932 2.5869-4.3932 3.5993-11.184 10.901-21.959 22.25-33.381 32.891-6.8605 4.6013-16.938 2.8081-21.735-3.9333-4.8999-6.4428-3.7982-16.409 2.4545-21.585 11.373-11.544 22.733-23.122 34.417-34.351 5.6655-4.8836 15.576-1.9063 17.586 5.3379 1.5513 4.7838-0.60682 10.062-4.5677 13.078-9.0089 8.9576-17.75 18.231-27.14 26.778-4.5652 2.6338-10.724-2.3165-9.0939-7.3463 2.0054-3.9776 6.0412-6.61 8.9051-9.9656 6.9491-6.9681 13.908-13.927 20.859-20.894-1.8144-1.0631-3.6558-4.9902-5.4502-3.9813-9.6671 9.8682-19.792 19.337-29.112 29.519-4.0026 5.7771-1.9378 14.373 4.0193 17.977 5.2221 3.6155 12.931 2.383 16.862-2.5834 9.608-9.498 19.407-18.843 28.553-28.782 5.7529-7.5735 3.781-19.586-4.112-24.922-3.0513-2.1824-6.799-3.4223-10.564-3.2744z" fill="#e3dbdb"/>
    <path d="m129.05 351.55c-4.5613 0.18615-7.4017 4.503-10.629 7.1756-10.61 10.644-21.476 21.058-31.633 32.137-5.883 7.205-3.0472 19.166 5.1865 23.312 4.1627 2.0737 9.3358 2.4689 13.699 0.85456 6.4979-4.1485 11.477-10.231 17.093-15.444 7.7221-7.5114 15.23-15.378 23.251-22.502 1.5741 1.0325 3.2453 2.5139 3.9277 4.2642-10.185 11.182-21.164 21.635-31.964 32.225-3.9129 3.879-8.1035 8.2371-13.959 8.6787-5.6284 0.8724-11.519 0.196-16.461-2.7826-2.4079-1.315 1.5009 1.9539 1.8555 2.5616 5.875 6.0604 11.835 12.038 17.757 18.052 8.5258 0.075 17.294 0.1021 25.327-3.1819 17.473-6.0335 31.255-21.237 35.737-39.147 2.0654-6.8466 1.6848-14.047 1.6969-21.105-8.0809-7.9312-15.955-16.176-24.256-23.822 3.1158 6.0915 3.6732 14.216-0.73617 19.846-9.5547 10.205-19.428 20.133-29.591 29.733-2.4719 2.6085-5.9246 4.0379-9.523 3.6558-9.5553 0.3499-16.191-12.722-9.8422-20.025 8.4426-9.5278 17.691-18.319 26.74-27.266 1.0947-0.59411 2.1999-3.2783 3.5427-1.6559 0.97643 1.2526 4.2646 2.6927 3.3728 4.0855-9.3382 9.61-19.184 18.751-28.073 28.784-2.026 1.826-1.8164 4.7244-0.26045 6.7856 2.2043 3.3101 7.7114 3.6603 10.062 0.29131 9.3205-9.102 18.8-18.083 27.532-27.756 4.4955-4.7744 2.9303-13.361-2.8228-16.44-2.1141-1.2488-4.6367-1.3667-7.0282-1.3138z" fill="#916f6f"/>
   </g>
   <g transform="matrix(.55428 0 0 .55428 418.55 238.73)" filter="url(#bt)">
    <circle cx="113.56" cy="113.35" r="56.575" fill="#ac9393"/>
    <path d="m142.58 85.472a21.748 21.748 0 0 1 -3.1e-4 30.757 21.748 21.748 0 0 1 -29.652 1.0282l-4.8004 4.8004 1.3701 1.3701-24.167 24.167-7.1559-7.1559 24.167-24.167 1.3701 1.3701 5.1442-5.1442a21.748 21.748 0 0 1 2.9678 -27.025 21.748 21.748 0 0 1 30.757 -3.2e-4zm-3.3499 3.3499a17.011 17.011 0 0 0 -24.057 3.2e-4 17.011 17.011 0 0 0 0 24.057 17.011 17.011 0 0 0 24.057 3.2e-4 17.011 17.011 0 0 0 0 -24.057z" fill="#e3dbdb"/>
    <path d="m146.05 89.549c2.1743 4.505 3.4297 9.5928 2.5992 14.62-1.479 11.823-14.093 20.709-25.721 17.987-3.5888-0.69875-6.9558-2.4176-9.8344-4.5333-1.6797 1.1969-3.5118 2.7764-4.4364 4.6252 1.3064 1.5054-1.3335 2.8311-2.0532 3.9868-6.9469 7.0842-14.061 14.003-21.085 21.01 7.4701 7.4853 14.94 14.971 22.41 22.456 8.5651 0.0888 17.348-0.14054 25.374-3.508 20.307-7.4141 35.449-27.336 36.494-49.02 0.56385-2.4625 0.12413-4.5511-2.0858-5.9803-7.2075-7.2029-14.25-14.75-21.661-21.645z" fill="#916f6f"/>
    <path d="m123.48 90.617v6.9215h-6.9223v6.6209h6.9223v6.9223h6.6209v-6.9223h6.9223v-6.6209h-6.9223v-6.9215h-6.6209z" fill="#e3dbdb"/>
   </g>
   <g transform="matrix(.55428 0 0 .55428 418.55 238.41)" filter="url(#bs)">
    <circle cx="237.73" cy="249.28" r="56.575" fill="#ac9393"/>
    <path d="m266.75 221.4a21.748 21.748 0 0 1 -3.1e-4 30.757 21.748 21.748 0 0 1 -29.652 1.0282l-4.8004 4.8004 1.3701 1.3701-24.167 24.167-7.1559-7.1559 24.167-24.167 1.3701 1.3701 5.1442-5.1442a21.748 21.748 0 0 1 2.9678 -27.025 21.748 21.748 0 0 1 30.757 -3.2e-4zm-3.3499 3.3499a17.011 17.011 0 0 0 -24.057 3.2e-4 17.011 17.011 0 0 0 0 24.057 17.011 17.011 0 0 0 24.057 3.2e-4 17.011 17.011 0 0 0 0 -24.057z" fill="#e3dbdb"/>
    <path d="m270.23 225.48c2.1743 4.505 3.4297 9.5928 2.5992 14.62-1.479 11.823-14.093 20.709-25.721 17.987-3.5888-0.69875-6.9558-2.4176-9.8344-4.5333-1.6797 1.1969-3.5118 2.7764-4.4364 4.6252 1.3064 1.5054-1.3335 2.8311-2.0532 3.9868-6.9469 7.0842-14.061 14.003-21.085 21.01 7.4701 7.4853 14.94 14.971 22.41 22.456 8.5651 0.0888 17.348-0.14054 25.374-3.508 20.307-7.4141 35.449-27.336 36.494-49.02 0.56385-2.4625 0.12413-4.5511-2.0858-5.9803-7.2075-7.2029-14.25-14.75-21.661-21.645z" fill="#916f6f"/>
    <rect transform="rotate(90)" x="233.35" y="-261.82" width="6.621" height="20.465" fill="#e3dbdb"/>
   </g>
   <g transform="matrix(.55428 0 0 .55428 418.55 239.51)" filter="url(#br)">
    <circle cx="237.73" cy="382.64" r="56.575" fill="#ac9393"/>
    <path d="m236.81 361.97-35.799 20.668 35.799 20.67v-20.621l35.717 20.621v-41.338l-35.717 20.619v-20.619z" fill="#e3dbdb"/>
    <path d="m272.77 382.42c-0.18724 6.7571 0.34567 13.821-0.55115 20.398-11.824-6.2642-23.334-13.444-35.018-19.747-0.55503 6.5281 0.37926 13.42-0.72103 19.747-11.84-6.2871-23.404-13.489-35.111-19.763 17.496 18.059 35.449 35.671 53.178 53.501 19.316-5.9575 34.69-22.872 38.465-42.776 0.48361-3.4323 1.5454-7.3282 0.96435-10.581-7.0687-7.0631-14.137-14.126-21.206-21.189v20.411z" fill="#916f6f"/>
   </g>
   <g transform="matrix(.55428 0 0 .55428 418.55 238.77)" filter="url(#bq)">
    <circle transform="scale(-1,1)" cx="-237.73" cy="519.31" r="56.575" fill="#ac9393"/>
    <path d="m238.66 498.64 35.799 20.668-35.799 20.67v-20.621l-35.717 20.621v-41.338l35.717 20.619v-20.619z" fill="#e3dbdb"/>
    <path d="m274.33 519.33c-11.835 6.9027-23.717 13.724-35.577 20.584-0.0499-6.661 0.0303-13.324-0.12202-19.984 0.11727-0.64538-0.3161-0.43631-0.6412-0.16847-11.637 6.6951-23.3 13.393-34.886 20.146 11.06 11.236 22.223 22.373 33.403 33.491 0.87783 0.81283 1.6974 1.7858 2.6216 2.493 4.8178-0.25346 9.6341-0.88589 14.272-2.252 14.104-3.9988 26.439-13.776 33.58-26.576 1.9255-3.3854 3.4865-6.9736 4.6766-10.681-5.5962-5.5433-11.08-11.203-16.775-16.645-0.1769-0.13452-0.3365-0.34027-0.55186-0.40592z" fill="#916f6f"/>
   </g>
   <g transform="matrix(.55428 0 0 .55428 418.55 239.86)" filter="url(#bp)">
    <circle transform="scale(-1,1)" cx="-110.73" cy="519.31" r="56.575" fill="#ac9393"/>
    <path transform="matrix(0 1 -1 0 721.91 357.04)" d="m184.18 630.15h-43.822l21.911-37.951z" fill="#e3dbdb"/>
    <path d="m110.95 530.13c-6.2762 3.6448-12.652 7.2731-18.873 10.917 8.962 9.2816 18.13 18.364 27.255 27.486 1.9228 1.8418 3.7376 3.83 5.7836 5.5244 4.6969-1.3947 9.3204-3.1222 13.564-5.6001 8.1993-4.6479 15.143-11.406 20.153-19.379 0.65437-0.55413-0.56778-0.96648-0.78809-1.4421-9.39-9.5061-18.894-18.898-28.348-28.341-6.2488 3.6115-12.498 7.223-18.746 10.835z" fill="#916f6f"/>
   </g>
   <g transform="matrix(.55428 0 0 .55428 418.55 238.73)" filter="url(#bo)">
    <circle transform="scale(-1,1)" cx="-110.73" cy="657.35" r="56.575" fill="#ac9393"/>
    <path d="m89.712 631.42v51.935h17.311v-51.935h-17.311zm23.304 0v51.935h17.312v-51.935h-17.312z" fill="#e3dbdb"/>
    <path d="m106.97 657.34v26.04h-17.125c9.9437 9.9441 19.887 19.888 29.831 29.832 12.105-2.0174 23.567-7.9318 31.994-16.887 6.8975-7.2692 11.895-16.352 14.124-26.137 0.16738-0.94518 0.60596-2.0012 0.43395-2.9064-11.954-11.948-23.907-23.895-35.861-35.842v51.94h-17.337v-46.023c-2.0203-2.0186-4.0406-4.0373-6.0609-6.0559v26.039z" fill="#916f6f"/>
   </g>
   <g transform="matrix(.55428 0 0 .55428 418.55 238.73)" filter="url(#bn)">
    <circle transform="scale(-1,1)" cx="-242.37" cy="654.73" r="56.575" fill="#ac9393"/>
    <path d="m231.38 688.99c-8.9732-3.1294-16.579-9.877-20.124-17.855-6.2004-13.95-3.9451-27.842 6.3298-38.988 4.4896-4.8707 8.2699-5.7429 11.141-2.5705 2.561 2.8299 1.98 5.7756-1.9055 9.6612-15.051 15.051-5.4258 39.485 15.554 39.485s30.604-24.434 15.554-39.485c-3.9492-3.9492-4.5384-7.295-1.7319-9.8348 3.1896-2.8866 6.5526-2.0451 10.967 2.7442 10.275 11.147 12.53 25.038 6.3298 38.988-6.7324 15.147-26.204 23.403-42.113 17.855zm6.9964-34.255c-1.8221-1.8221-1.999-3.3316-1.999-17.057 0-8.4685 0.45277-15.904 1.0346-16.991 1.3616-2.5441 7.0399-2.6085 9.3051-0.10541 1.3862 1.5317 1.6541 4.2841 1.6541 16.991 0 13.831-0.17567 15.339-1.999 17.162-1.0994 1.0994-2.8985 1.999-3.998 1.999s-2.8985-0.89954-3.998-1.999z" fill="#e3dbdb"/>
    <path d="m269.66 634.85c3.3755 4.887 6.117 10.372 6.7722 16.371 2.1245 14.342-5.5522 30.036-19.108 35.852-10.955 5.4906-24.858 4.6597-34.769-2.6719-0.98606-0.79751-2.8448-1.7562-0.91492-0.0292 8.2297 8.35 16.282 16.912 24.949 24.808 3.0012 3.029 7.2391 0.57891 10.699-8.1e-4 20.624-5.4798 37.139-23.538 40.724-44.582 0.86439-2.531-2.7398-3.7276-3.9341-5.6438-8.1244-8.026-16.116-16.358-24.419-24.104z" fill="#916f6f"/>
   </g>
   <g transform="matrix(.55428 0 0 .55428 123.33 238.73)" filter="url(#bx)">
    <circle cx="237" cy="113.35" r="56.575" fill="#ac9393"/>
    <path d="m238.86 72.548c3.0964-3.0964 8.0821-3.096 11.178 3.7e-4l27.759 27.759c3.0964 3.0964 3.0968 8.0821 3.8e-4 11.178l-42.664 42.664c-3.0964 3.0964-8.0825 3.0964-11.179 0l-27.759-27.759c-3.0964-3.0964-3.0964-8.0825 0-11.179l42.664-42.664zm-0.24959 5.4666-36.948 36.948c-0.25863 0.25865-0.49163 0.53282-0.70039 0.81894l36.095-2.3718 2.3726-36.096c-0.28614 0.20875-0.5603 0.44175-0.81894 0.70038zm7.8782-1.297-2.5921 39.436c-0.0695 1.0576-0.59546 2.0315-1.3707 2.7247-0.69323 0.77528-1.6664 1.3005-2.7239 1.37l-39.436 2.5921c0.32301 0.64946 0.75365 1.2598 1.2962 1.8024l24.04 24.04c2.6816 2.6816 6.999 2.6816 9.6806 0l36.948-36.948c2.6816-2.6816 2.682-6.9994 3.8e-4 -9.681l-24.04-24.04c-0.54274-0.54274-1.1532-0.97364-1.8028-1.2967z" fill="#e3dbdb"/>
    <path d="m279.87 104.95c0.33631 2.4507-0.39084 4.8662-2.3665 6.4427-13.908 14.563-28.189 28.779-42.7 42.742-2.4347 2.8779-6.828 2.7173-9.8616 1.0218 4.5911 5.1011 9.602 9.8191 14.403 14.725 18.039-0.7892 35.378-10.678 45.03-25.968 5.3301-8.2214 8.3931-17.825 9.1075-27.581-4.5878-4.5831-9.1757-9.1661-13.764-13.749 0.0502 0.7888 0.10045 1.5776 0.15068 2.3664z" fill="#916f6f"/>
   </g>
   <g transform="matrix(.55428 0 0 .55428 123.33 237.96)" filter="url(#by)">
    <circle cx="113.56" cy="250.75" r="56.575" fill="#ac9393"/>
    <path d="m134.61 221.4c-1.7747-1.7748-4.632-1.7748-6.4067-1e-5l-36.24 36.24c-1.7747 1.7747-1.7747 4.632 1e-5 6.4067l8.2987 8.2988c1.7748 1.7748 4.632 1.7748 6.4067 0l36.24-36.24c1.7747-1.7747 1.7747-4.632 0-6.4067l-8.2988-8.2988zm-46.451 40.339-5.2745 19.685 19.685-5.2744-14.411-14.411z" fill="#e3dbdb"/>
    <path d="m143.45 230.2c0.95466 1.7118 1.1548 4.1762-0.48325 5.5572-9.5192 9.9357-19.364 19.555-29.102 29.275-2.8738 2.7553-5.613 5.7072-8.6358 8.275-1.2234 0.62734-1.4189 2.6276-2.8529 2.8981-6.3407 1.6717-12.732 3.3766-19.042 5.1149 4.7558 5.2804 9.9318 10.182 14.915 15.251 3.5563 3.4468 6.903 7.1323 10.675 10.344 1.3714 0.55999 2.9784 0.17175 4.4368 0.32809 18.048 0.26053 35.856-8.931 46.228-23.68 5.701-7.9386 9.1406-17.387 10.253-27.076-8.7956-8.7568-17.532-17.627-26.392-26.287z" fill="#916f6f"/>
   </g>
   <g transform="matrix(.55428 0 0 .55428 123.33 239.63)" filter="url(#bz)">
    <circle cx="113.56" cy="383.73" r="56.575" fill="#ac9393"/>
    <path d="m130.28 344.65c-5.7073-0.20009-10.906 2.9874-14.46 7.2642-11.379 11.313-22.956 22.448-33.99 34.093-7.006 8.4326-6.4143 21.853 1.2182 29.692 7.6402 8.5912 22.102 9.6004 30.792 2.0554 12.287-11.914 24.439-23.987 36.345-36.279-0.70793-1.8465-2.4686-3.2368-4.0121-4.3867-1.7622 0.10304-2.8932 2.5869-4.3932 3.5993-11.184 10.901-21.959 22.25-33.381 32.891-6.8605 4.6013-16.938 2.8081-21.735-3.9333-4.8999-6.4428-3.7982-16.409 2.4545-21.585 11.373-11.544 22.733-23.122 34.417-34.351 5.6655-4.8836 15.576-1.9063 17.586 5.3379 1.5513 4.7838-0.60682 10.062-4.5677 13.078-9.0089 8.9576-17.75 18.231-27.14 26.778-4.5652 2.6338-10.724-2.3165-9.0939-7.3463 2.0054-3.9776 6.0412-6.61 8.9051-9.9656 6.9491-6.9681 13.908-13.927 20.859-20.894-1.8144-1.0631-3.6558-4.9902-5.4502-3.9813-9.6671 9.8682-19.792 19.337-29.112 29.519-4.0026 5.7771-1.9378 14.373 4.0193 17.977 5.2221 3.6155 12.931 2.383 16.862-2.5834 9.608-9.498 19.407-18.843 28.553-28.782 5.7529-7.5735 3.781-19.586-4.112-24.922-3.0513-2.1824-6.799-3.4223-10.564-3.2744z" fill="#e3dbdb"/>
    <path d="m129.05 351.55c-4.5613 0.18615-7.4017 4.503-10.629 7.1756-10.61 10.644-21.476 21.058-31.633 32.137-5.883 7.205-3.0472 19.166 5.1865 23.312 4.1627 2.0737 9.3358 2.4689 13.699 0.85456 6.4979-4.1485 11.477-10.231 17.093-15.444 7.7221-7.5114 15.23-15.378 23.251-22.502 1.5741 1.0325 3.2453 2.5139 3.9277 4.2642-10.185 11.182-21.164 21.635-31.964 32.225-3.9129 3.879-8.1035 8.2371-13.959 8.6787-5.6284 0.8724-11.519 0.196-16.461-2.7826-2.4079-1.315 1.5009 1.9539 1.8555 2.5616 5.875 6.0604 11.835 12.038 17.757 18.052 8.5258 0.075 17.294 0.1021 25.327-3.1819 17.473-6.0335 31.255-21.237 35.737-39.147 2.0654-6.8466 1.6848-14.047 1.6969-21.105-8.0809-7.9312-15.955-16.176-24.256-23.822 3.1158 6.0915 3.6732 14.216-0.73617 19.846-9.5547 10.205-19.428 20.133-29.591 29.733-2.4719 2.6085-5.9246 4.0379-9.523 3.6558-9.5553 0.3499-16.191-12.722-9.8422-20.025 8.4426-9.5278 17.691-18.319 26.74-27.266 1.0947-0.59411 2.1999-3.2783 3.5427-1.6559 0.97643 1.2526 4.2646 2.6927 3.3728 4.0855-9.3382 9.61-19.184 18.751-28.073 28.784-2.026 1.826-1.8164 4.7244-0.26045 6.7856 2.2043 3.3101 7.7114 3.6603 10.062 0.29131 9.3205-9.102 18.8-18.083 27.532-27.756 4.4955-4.7744 2.9303-13.361-2.8228-16.44-2.1141-1.2488-4.6367-1.3667-7.0282-1.3138z" fill="#916f6f"/>
   </g>
   <g transform="matrix(.55428 0 0 .55428 123.33 238.73)" filter="url(#ca)">
    <circle cx="113.56" cy="113.35" r="56.575" fill="#ac9393"/>
    <path d="m142.58 85.472a21.748 21.748 0 0 1 -3.1e-4 30.757 21.748 21.748 0 0 1 -29.652 1.0282l-4.8004 4.8004 1.3701 1.3701-24.167 24.167-7.1559-7.1559 24.167-24.167 1.3701 1.3701 5.1442-5.1442a21.748 21.748 0 0 1 2.9678 -27.025 21.748 21.748 0 0 1 30.757 -3.2e-4zm-3.3499 3.3499a17.011 17.011 0 0 0 -24.057 3.2e-4 17.011 17.011 0 0 0 0 24.057 17.011 17.011 0 0 0 24.057 3.2e-4 17.011 17.011 0 0 0 0 -24.057z" fill="#e3dbdb"/>
    <path d="m146.05 89.549c2.1743 4.505 3.4297 9.5928 2.5992 14.62-1.479 11.823-14.093 20.709-25.721 17.987-3.5888-0.69875-6.9558-2.4176-9.8344-4.5333-1.6797 1.1969-3.5118 2.7764-4.4364 4.6252 1.3064 1.5054-1.3335 2.8311-2.0532 3.9868-6.9469 7.0842-14.061 14.003-21.085 21.01 7.4701 7.4853 14.94 14.971 22.41 22.456 8.5651 0.0888 17.348-0.14054 25.374-3.508 20.307-7.4141 35.449-27.336 36.494-49.02 0.56385-2.4625 0.12413-4.5511-2.0858-5.9803-7.2075-7.2029-14.25-14.75-21.661-21.645z" fill="#916f6f"/>
    <path d="m123.48 90.617v6.9215h-6.9223v6.6209h6.9223v6.9223h6.6209v-6.9223h6.9223v-6.6209h-6.9223v-6.9215h-6.6209z" fill="#e3dbdb"/>
   </g>
   <g transform="matrix(.55428 0 0 .55428 123.33 238.41)" filter="url(#ao)">
    <circle cx="237.73" cy="249.28" r="56.575" fill="#ac9393"/>
    <path d="m266.75 221.4a21.748 21.748 0 0 1 -3.1e-4 30.757 21.748 21.748 0 0 1 -29.652 1.0282l-4.8004 4.8004 1.3701 1.3701-24.167 24.167-7.1559-7.1559 24.167-24.167 1.3701 1.3701 5.1442-5.1442a21.748 21.748 0 0 1 2.9678 -27.025 21.748 21.748 0 0 1 30.757 -3.2e-4zm-3.3499 3.3499a17.011 17.011 0 0 0 -24.057 3.2e-4 17.011 17.011 0 0 0 0 24.057 17.011 17.011 0 0 0 24.057 3.2e-4 17.011 17.011 0 0 0 0 -24.057z" fill="#e3dbdb"/>
    <path d="m270.23 225.48c2.1743 4.505 3.4297 9.5928 2.5992 14.62-1.479 11.823-14.093 20.709-25.721 17.987-3.5888-0.69875-6.9558-2.4176-9.8344-4.5333-1.6797 1.1969-3.5118 2.7764-4.4364 4.6252 1.3064 1.5054-1.3335 2.8311-2.0532 3.9868-6.9469 7.0842-14.061 14.003-21.085 21.01 7.4701 7.4853 14.94 14.971 22.41 22.456 8.5651 0.0888 17.348-0.14054 25.374-3.508 20.307-7.4141 35.449-27.336 36.494-49.02 0.56385-2.4625 0.12413-4.5511-2.0858-5.9803-7.2075-7.2029-14.25-14.75-21.661-21.645z" fill="#916f6f"/>
    <rect transform="rotate(90)" x="233.35" y="-261.82" width="6.621" height="20.465" fill="#e3dbdb"/>
   </g>
   <g transform="matrix(.55428 0 0 .55428 123.33 239.51)" filter="url(#ap)">
    <circle cx="237.73" cy="382.64" r="56.575" fill="#ac9393"/>
    <path d="m236.81 361.97-35.799 20.668 35.799 20.67v-20.621l35.717 20.621v-41.338l-35.717 20.619v-20.619z" fill="#e3dbdb"/>
    <path d="m272.77 382.42c-0.18724 6.7571 0.34567 13.821-0.55115 20.398-11.824-6.2642-23.334-13.444-35.018-19.747-0.55503 6.5281 0.37926 13.42-0.72103 19.747-11.84-6.2871-23.404-13.489-35.111-19.763 17.496 18.059 35.449 35.671 53.178 53.501 19.316-5.9575 34.69-22.872 38.465-42.776 0.48361-3.4323 1.5454-7.3282 0.96435-10.581-7.0687-7.0631-14.137-14.126-21.206-21.189v20.411z" fill="#916f6f"/>
   </g>
   <g transform="matrix(.55428 0 0 .55428 123.33 238.77)" filter="url(#aq)">
    <circle transform="scale(-1,1)" cx="-237.73" cy="519.31" r="56.575" fill="#ac9393"/>
    <path d="m238.66 498.64 35.799 20.668-35.799 20.67v-20.621l-35.717 20.621v-41.338l35.717 20.619v-20.619z" fill="#e3dbdb"/>
    <path d="m274.33 519.33c-11.835 6.9027-23.717 13.724-35.577 20.584-0.0499-6.661 0.0303-13.324-0.12202-19.984 0.11727-0.64538-0.3161-0.43631-0.6412-0.16847-11.637 6.6951-23.3 13.393-34.886 20.146 11.06 11.236 22.223 22.373 33.403 33.491 0.87783 0.81283 1.6974 1.7858 2.6216 2.493 4.8178-0.25346 9.6341-0.88589 14.272-2.252 14.104-3.9988 26.439-13.776 33.58-26.576 1.9255-3.3854 3.4865-6.9736 4.6766-10.681-5.5962-5.5433-11.08-11.203-16.775-16.645-0.1769-0.13452-0.3365-0.34027-0.55186-0.40592z" fill="#916f6f"/>
   </g>
   <g transform="matrix(.55428 0 0 .55428 123.33 239.86)" filter="url(#ar)">
    <circle transform="scale(-1,1)" cx="-110.73" cy="519.31" r="56.575" fill="#ac9393"/>
    <path transform="matrix(0 1 -1 0 721.91 357.04)" d="m184.18 630.15h-43.822l21.911-37.951z" fill="#e3dbdb"/>
    <path d="m110.95 530.13c-6.2762 3.6448-12.652 7.2731-18.873 10.917 8.962 9.2816 18.13 18.364 27.255 27.486 1.9228 1.8418 3.7376 3.83 5.7836 5.5244 4.6969-1.3947 9.3204-3.1222 13.564-5.6001 8.1993-4.6479 15.143-11.406 20.153-19.379 0.65437-0.55413-0.56778-0.96648-0.78809-1.4421-9.39-9.5061-18.894-18.898-28.348-28.341-6.2488 3.6115-12.498 7.223-18.746 10.835z" fill="#916f6f"/>
   </g>
   <g transform="matrix(.55428 0 0 .55428 123.33 238.73)" filter="url(#as)">
    <circle transform="scale(-1,1)" cx="-110.73" cy="657.35" r="56.575" fill="#ac9393"/>
    <path d="m89.712 631.42v51.935h17.311v-51.935h-17.311zm23.304 0v51.935h17.312v-51.935h-17.312z" fill="#e3dbdb"/>
    <path d="m106.97 657.34v26.04h-17.125c9.9437 9.9441 19.887 19.888 29.831 29.832 12.105-2.0174 23.567-7.9318 31.994-16.887 6.8975-7.2692 11.895-16.352 14.124-26.137 0.16738-0.94518 0.60596-2.0012 0.43395-2.9064-11.954-11.948-23.907-23.895-35.861-35.842v51.94h-17.337v-46.023c-2.0203-2.0186-4.0406-4.0373-6.0609-6.0559v26.039z" fill="#916f6f"/>
   </g>
   <g transform="matrix(.55428 0 0 .55428 123.33 238.73)" filter="url(#at)">
    <circle transform="scale(-1,1)" cx="-242.37" cy="654.73" r="56.575" fill="#ac9393"/>
    <path d="m231.38 688.99c-8.9732-3.1294-16.579-9.877-20.124-17.855-6.2004-13.95-3.9451-27.842 6.3298-38.988 4.4896-4.8707 8.2699-5.7429 11.141-2.5705 2.561 2.8299 1.98 5.7756-1.9055 9.6612-15.051 15.051-5.4258 39.485 15.554 39.485s30.604-24.434 15.554-39.485c-3.9492-3.9492-4.5384-7.295-1.7319-9.8348 3.1896-2.8866 6.5526-2.0451 10.967 2.7442 10.275 11.147 12.53 25.038 6.3298 38.988-6.7324 15.147-26.204 23.403-42.113 17.855zm6.9964-34.255c-1.8221-1.8221-1.999-3.3316-1.999-17.057 0-8.4685 0.45277-15.904 1.0346-16.991 1.3616-2.5441 7.0399-2.6085 9.3051-0.10541 1.3862 1.5317 1.6541 4.2841 1.6541 16.991 0 13.831-0.17567 15.339-1.999 17.162-1.0994 1.0994-2.8985 1.999-3.998 1.999s-2.8985-0.89954-3.998-1.999z" fill="#e3dbdb"/>
    <path d="m269.66 634.85c3.3755 4.887 6.117 10.372 6.7722 16.371 2.1245 14.342-5.5522 30.036-19.108 35.852-10.955 5.4906-24.858 4.6597-34.769-2.6719-0.98606-0.79751-2.8448-1.7562-0.91492-0.0292 8.2297 8.35 16.282 16.912 24.949 24.808 3.0012 3.029 7.2391 0.57891 10.699-8.1e-4 20.624-5.4798 37.139-23.538 40.724-44.582 0.86439-2.531-2.7398-3.7276-3.9341-5.6438-8.1244-8.026-16.116-16.358-24.419-24.104z" fill="#916f6f"/>
   </g>
   <g transform="matrix(.55428 0 0 .55428 562.63 238.73)" filter="url(#au)">
    <circle cx="237" cy="113.35" r="56.575" fill="#ac9393"/>
    <path d="m238.86 72.548c3.0964-3.0964 8.0821-3.096 11.178 3.7e-4l27.759 27.759c3.0964 3.0964 3.0968 8.0821 3.8e-4 11.178l-42.664 42.664c-3.0964 3.0964-8.0825 3.0964-11.179 0l-27.759-27.759c-3.0964-3.0964-3.0964-8.0825 0-11.179l42.664-42.664zm-0.24959 5.4666-36.948 36.948c-0.25863 0.25865-0.49163 0.53282-0.70039 0.81894l36.095-2.3718 2.3726-36.096c-0.28614 0.20875-0.5603 0.44175-0.81894 0.70038zm7.8782-1.297-2.5921 39.436c-0.0695 1.0576-0.59546 2.0315-1.3707 2.7247-0.69323 0.77528-1.6664 1.3005-2.7239 1.37l-39.436 2.5921c0.32301 0.64946 0.75365 1.2598 1.2962 1.8024l24.04 24.04c2.6816 2.6816 6.999 2.6816 9.6806 0l36.948-36.948c2.6816-2.6816 2.682-6.9994 3.8e-4 -9.681l-24.04-24.04c-0.54274-0.54274-1.1532-0.97364-1.8028-1.2967z" fill="#e3dbdb"/>
    <path d="m279.87 104.95c0.33631 2.4507-0.39084 4.8662-2.3665 6.4427-13.908 14.563-28.189 28.779-42.7 42.742-2.4347 2.8779-6.828 2.7173-9.8616 1.0218 4.5911 5.1011 9.602 9.8191 14.403 14.725 18.039-0.7892 35.378-10.678 45.03-25.968 5.3301-8.2214 8.3931-17.825 9.1075-27.581-4.5878-4.5831-9.1757-9.1661-13.764-13.749 0.0502 0.7888 0.10045 1.5776 0.15068 2.3664z" fill="#916f6f"/>
   </g>
   <g transform="matrix(.55428 0 0 .55428 562.63 237.96)" filter="url(#av)">
    <circle cx="113.56" cy="250.75" r="56.575" fill="#ac9393"/>
    <path d="m134.61 221.4c-1.7747-1.7748-4.632-1.7748-6.4067-1e-5l-36.24 36.24c-1.7747 1.7747-1.7747 4.632 1e-5 6.4067l8.2987 8.2988c1.7748 1.7748 4.632 1.7748 6.4067 0l36.24-36.24c1.7747-1.7747 1.7747-4.632 0-6.4067l-8.2988-8.2988zm-46.451 40.339-5.2745 19.685 19.685-5.2744-14.411-14.411z" fill="#e3dbdb"/>
    <path d="m143.45 230.2c0.95466 1.7118 1.1548 4.1762-0.48325 5.5572-9.5192 9.9357-19.364 19.555-29.102 29.275-2.8738 2.7553-5.613 5.7072-8.6358 8.275-1.2234 0.62734-1.4189 2.6276-2.8529 2.8981-6.3407 1.6717-12.732 3.3766-19.042 5.1149 4.7558 5.2804 9.9318 10.182 14.915 15.251 3.5563 3.4468 6.903 7.1323 10.675 10.344 1.3714 0.55999 2.9784 0.17175 4.4368 0.32809 18.048 0.26053 35.856-8.931 46.228-23.68 5.701-7.9386 9.1406-17.387 10.253-27.076-8.7956-8.7568-17.532-17.627-26.392-26.287z" fill="#916f6f"/>
   </g>
   <g transform="matrix(.55428 0 0 .55428 562.63 239.63)" filter="url(#aw)">
    <circle cx="113.56" cy="383.73" r="56.575" fill="#ac9393"/>
    <path d="m130.28 344.65c-5.7073-0.20009-10.906 2.9874-14.46 7.2642-11.379 11.313-22.956 22.448-33.99 34.093-7.006 8.4326-6.4143 21.853 1.2182 29.692 7.6402 8.5912 22.102 9.6004 30.792 2.0554 12.287-11.914 24.439-23.987 36.345-36.279-0.70793-1.8465-2.4686-3.2368-4.0121-4.3867-1.7622 0.10304-2.8932 2.5869-4.3932 3.5993-11.184 10.901-21.959 22.25-33.381 32.891-6.8605 4.6013-16.938 2.8081-21.735-3.9333-4.8999-6.4428-3.7982-16.409 2.4545-21.585 11.373-11.544 22.733-23.122 34.417-34.351 5.6655-4.8836 15.576-1.9063 17.586 5.3379 1.5513 4.7838-0.60682 10.062-4.5677 13.078-9.0089 8.9576-17.75 18.231-27.14 26.778-4.5652 2.6338-10.724-2.3165-9.0939-7.3463 2.0054-3.9776 6.0412-6.61 8.9051-9.9656 6.9491-6.9681 13.908-13.927 20.859-20.894-1.8144-1.0631-3.6558-4.9902-5.4502-3.9813-9.6671 9.8682-19.792 19.337-29.112 29.519-4.0026 5.7771-1.9378 14.373 4.0193 17.977 5.2221 3.6155 12.931 2.383 16.862-2.5834 9.608-9.498 19.407-18.843 28.553-28.782 5.7529-7.5735 3.781-19.586-4.112-24.922-3.0513-2.1824-6.799-3.4223-10.564-3.2744z" fill="#e3dbdb"/>
    <path d="m129.05 351.55c-4.5613 0.18615-7.4017 4.503-10.629 7.1756-10.61 10.644-21.476 21.058-31.633 32.137-5.883 7.205-3.0472 19.166 5.1865 23.312 4.1627 2.0737 9.3358 2.4689 13.699 0.85456 6.4979-4.1485 11.477-10.231 17.093-15.444 7.7221-7.5114 15.23-15.378 23.251-22.502 1.5741 1.0325 3.2453 2.5139 3.9277 4.2642-10.185 11.182-21.164 21.635-31.964 32.225-3.9129 3.879-8.1035 8.2371-13.959 8.6787-5.6284 0.8724-11.519 0.196-16.461-2.7826-2.4079-1.315 1.5009 1.9539 1.8555 2.5616 5.875 6.0604 11.835 12.038 17.757 18.052 8.5258 0.075 17.294 0.1021 25.327-3.1819 17.473-6.0335 31.255-21.237 35.737-39.147 2.0654-6.8466 1.6848-14.047 1.6969-21.105-8.0809-7.9312-15.955-16.176-24.256-23.822 3.1158 6.0915 3.6732 14.216-0.73617 19.846-9.5547 10.205-19.428 20.133-29.591 29.733-2.4719 2.6085-5.9246 4.0379-9.523 3.6558-9.5553 0.3499-16.191-12.722-9.8422-20.025 8.4426-9.5278 17.691-18.319 26.74-27.266 1.0947-0.59411 2.1999-3.2783 3.5427-1.6559 0.97643 1.2526 4.2646 2.6927 3.3728 4.0855-9.3382 9.61-19.184 18.751-28.073 28.784-2.026 1.826-1.8164 4.7244-0.26045 6.7856 2.2043 3.3101 7.7114 3.6603 10.062 0.29131 9.3205-9.102 18.8-18.083 27.532-27.756 4.4955-4.7744 2.9303-13.361-2.8228-16.44-2.1141-1.2488-4.6367-1.3667-7.0282-1.3138z" fill="#916f6f"/>
   </g>
   <g transform="matrix(.55428 0 0 .55428 562.63 238.73)" filter="url(#ax)">
    <circle cx="113.56" cy="113.35" r="56.575" fill="#ac9393"/>
    <path d="m142.58 85.472a21.748 21.748 0 0 1 -3.1e-4 30.757 21.748 21.748 0 0 1 -29.652 1.0282l-4.8004 4.8004 1.3701 1.3701-24.167 24.167-7.1559-7.1559 24.167-24.167 1.3701 1.3701 5.1442-5.1442a21.748 21.748 0 0 1 2.9678 -27.025 21.748 21.748 0 0 1 30.757 -3.2e-4zm-3.3499 3.3499a17.011 17.011 0 0 0 -24.057 3.2e-4 17.011 17.011 0 0 0 0 24.057 17.011 17.011 0 0 0 24.057 3.2e-4 17.011 17.011 0 0 0 0 -24.057z" fill="#e3dbdb"/>
    <path d="m146.05 89.549c2.1743 4.505 3.4297 9.5928 2.5992 14.62-1.479 11.823-14.093 20.709-25.721 17.987-3.5888-0.69875-6.9558-2.4176-9.8344-4.5333-1.6797 1.1969-3.5118 2.7764-4.4364 4.6252 1.3064 1.5054-1.3335 2.8311-2.0532 3.9868-6.9469 7.0842-14.061 14.003-21.085 21.01 7.4701 7.4853 14.94 14.971 22.41 22.456 8.5651 0.0888 17.348-0.14054 25.374-3.508 20.307-7.4141 35.449-27.336 36.494-49.02 0.56385-2.4625 0.12413-4.5511-2.0858-5.9803-7.2075-7.2029-14.25-14.75-21.661-21.645z" fill="#916f6f"/>
    <path d="m123.48 90.617v6.9215h-6.9223v6.6209h6.9223v6.9223h6.6209v-6.9223h6.9223v-6.6209h-6.9223v-6.9215h-6.6209z" fill="#e3dbdb"/>
   </g>
   <g transform="matrix(.55428 0 0 .55428 562.63 238.41)" filter="url(#ay)">
    <circle cx="237.73" cy="249.28" r="56.575" fill="#ac9393"/>
    <path d="m266.75 221.4a21.748 21.748 0 0 1 -3.1e-4 30.757 21.748 21.748 0 0 1 -29.652 1.0282l-4.8004 4.8004 1.3701 1.3701-24.167 24.167-7.1559-7.1559 24.167-24.167 1.3701 1.3701 5.1442-5.1442a21.748 21.748 0 0 1 2.9678 -27.025 21.748 21.748 0 0 1 30.757 -3.2e-4zm-3.3499 3.3499a17.011 17.011 0 0 0 -24.057 3.2e-4 17.011 17.011 0 0 0 0 24.057 17.011 17.011 0 0 0 24.057 3.2e-4 17.011 17.011 0 0 0 0 -24.057z" fill="#e3dbdb"/>
    <path d="m270.23 225.48c2.1743 4.505 3.4297 9.5928 2.5992 14.62-1.479 11.823-14.093 20.709-25.721 17.987-3.5888-0.69875-6.9558-2.4176-9.8344-4.5333-1.6797 1.1969-3.5118 2.7764-4.4364 4.6252 1.3064 1.5054-1.3335 2.8311-2.0532 3.9868-6.9469 7.0842-14.061 14.003-21.085 21.01 7.4701 7.4853 14.94 14.971 22.41 22.456 8.5651 0.0888 17.348-0.14054 25.374-3.508 20.307-7.4141 35.449-27.336 36.494-49.02 0.56385-2.4625 0.12413-4.5511-2.0858-5.9803-7.2075-7.2029-14.25-14.75-21.661-21.645z" fill="#916f6f"/>
    <rect transform="rotate(90)" x="233.35" y="-261.82" width="6.621" height="20.465" fill="#e3dbdb"/>
   </g>
   <g transform="matrix(.55428 0 0 .55428 562.63 239.51)" filter="url(#az)">
    <circle cx="237.73" cy="382.64" r="56.575" fill="#ac9393"/>
    <path d="m236.81 361.97-35.799 20.668 35.799 20.67v-20.621l35.717 20.621v-41.338l-35.717 20.619v-20.619z" fill="#e3dbdb"/>
    <path d="m272.77 382.42c-0.18724 6.7571 0.34567 13.821-0.55115 20.398-11.824-6.2642-23.334-13.444-35.018-19.747-0.55503 6.5281 0.37926 13.42-0.72103 19.747-11.84-6.2871-23.404-13.489-35.111-19.763 17.496 18.059 35.449 35.671 53.178 53.501 19.316-5.9575 34.69-22.872 38.465-42.776 0.48361-3.4323 1.5454-7.3282 0.96435-10.581-7.0687-7.0631-14.137-14.126-21.206-21.189v20.411z" fill="#916f6f"/>
   </g>
   <g transform="matrix(.55428 0 0 .55428 562.63 238.77)" filter="url(#ba)">
    <circle transform="scale(-1,1)" cx="-237.73" cy="519.31" r="56.575" fill="#ac9393"/>
    <path d="m238.66 498.64 35.799 20.668-35.799 20.67v-20.621l-35.717 20.621v-41.338l35.717 20.619v-20.619z" fill="#e3dbdb"/>
    <path d="m274.33 519.33c-11.835 6.9027-23.717 13.724-35.577 20.584-0.0499-6.661 0.0303-13.324-0.12202-19.984 0.11727-0.64538-0.3161-0.43631-0.6412-0.16847-11.637 6.6951-23.3 13.393-34.886 20.146 11.06 11.236 22.223 22.373 33.403 33.491 0.87783 0.81283 1.6974 1.7858 2.6216 2.493 4.8178-0.25346 9.6341-0.88589 14.272-2.252 14.104-3.9988 26.439-13.776 33.58-26.576 1.9255-3.3854 3.4865-6.9736 4.6766-10.681-5.5962-5.5433-11.08-11.203-16.775-16.645-0.1769-0.13452-0.3365-0.34027-0.55186-0.40592z" fill="#916f6f"/>
   </g>
   <g transform="matrix(.55428 0 0 .55428 562.63 239.86)" filter="url(#bb)">
    <circle transform="scale(-1,1)" cx="-110.73" cy="519.31" r="56.575" fill="#ac9393"/>
    <path transform="matrix(0 1 -1 0 721.91 357.04)" d="m184.18 630.15h-43.822l21.911-37.951z" fill="#e3dbdb"/>
    <path d="m110.95 530.13c-6.2762 3.6448-12.652 7.2731-18.873 10.917 8.962 9.2816 18.13 18.364 27.255 27.486 1.9228 1.8418 3.7376 3.83 5.7836 5.5244 4.6969-1.3947 9.3204-3.1222 13.564-5.6001 8.1993-4.6479 15.143-11.406 20.153-19.379 0.65437-0.55413-0.56778-0.96648-0.78809-1.4421-9.39-9.5061-18.894-18.898-28.348-28.341-6.2488 3.6115-12.498 7.223-18.746 10.835z" fill="#916f6f"/>
   </g>
   <g transform="matrix(.55428 0 0 .55428 562.63 238.73)" filter="url(#bc)">
    <circle transform="scale(-1,1)" cx="-110.73" cy="657.35" r="56.575" fill="#ac9393"/>
    <path d="m89.712 631.42v51.935h17.311v-51.935h-17.311zm23.304 0v51.935h17.312v-51.935h-17.312z" fill="#e3dbdb"/>
    <path d="m106.97 657.34v26.04h-17.125c9.9437 9.9441 19.887 19.888 29.831 29.832 12.105-2.0174 23.567-7.9318 31.994-16.887 6.8975-7.2692 11.895-16.352 14.124-26.137 0.16738-0.94518 0.60596-2.0012 0.43395-2.9064-11.954-11.948-23.907-23.895-35.861-35.842v51.94h-17.337v-46.023c-2.0203-2.0186-4.0406-4.0373-6.0609-6.0559v26.039z" fill="#916f6f"/>
   </g>
   <g transform="matrix(.55428 0 0 .55428 562.63 238.73)" filter="url(#bd)">
    <circle transform="scale(-1,1)" cx="-242.37" cy="654.73" r="56.575" fill="#ac9393"/>
    <path d="m231.38 688.99c-8.9732-3.1294-16.579-9.877-20.124-17.855-6.2004-13.95-3.9451-27.842 6.3298-38.988 4.4896-4.8707 8.2699-5.7429 11.141-2.5705 2.561 2.8299 1.98 5.7756-1.9055 9.6612-15.051 15.051-5.4258 39.485 15.554 39.485s30.604-24.434 15.554-39.485c-3.9492-3.9492-4.5384-7.295-1.7319-9.8348 3.1896-2.8866 6.5526-2.0451 10.967 2.7442 10.275 11.147 12.53 25.038 6.3298 38.988-6.7324 15.147-26.204 23.403-42.113 17.855zm6.9964-34.255c-1.8221-1.8221-1.999-3.3316-1.999-17.057 0-8.4685 0.45277-15.904 1.0346-16.991 1.3616-2.5441 7.0399-2.6085 9.3051-0.10541 1.3862 1.5317 1.6541 4.2841 1.6541 16.991 0 13.831-0.17567 15.339-1.999 17.162-1.0994 1.0994-2.8985 1.999-3.998 1.999s-2.8985-0.89954-3.998-1.999z" fill="#e3dbdb"/>
    <path d="m269.66 634.85c3.3755 4.887 6.117 10.372 6.7722 16.371 2.1245 14.342-5.5522 30.036-19.108 35.852-10.955 5.4906-24.858 4.6597-34.769-2.6719-0.98606-0.79751-2.8448-1.7562-0.91492-0.0292 8.2297 8.35 16.282 16.912 24.949 24.808 3.0012 3.029 7.2391 0.57891 10.699-8.1e-4 20.624-5.4798 37.139-23.538 40.724-44.582 0.86439-2.531-2.7398-3.7276-3.9341-5.6438-8.1244-8.026-16.116-16.358-24.419-24.104z" fill="#916f6f"/>
   </g>
   <g transform="matrix(.55428 0 0 .55428 -22.519 238.73)" filter="url(#cb)">
    <circle cx="237" cy="113.35" r="56.575" fill="#ac9393"/>
    <path d="m238.86 72.548c3.0964-3.0964 8.0821-3.096 11.178 3.7e-4l27.759 27.759c3.0964 3.0964 3.0968 8.0821 3.8e-4 11.178l-42.664 42.664c-3.0964 3.0964-8.0825 3.0964-11.179 0l-27.759-27.759c-3.0964-3.0964-3.0964-8.0825 0-11.179l42.664-42.664zm-0.24959 5.4666-36.948 36.948c-0.25863 0.25865-0.49163 0.53282-0.70039 0.81894l36.095-2.3718 2.3726-36.096c-0.28614 0.20875-0.5603 0.44175-0.81894 0.70038zm7.8782-1.297-2.5921 39.436c-0.0695 1.0576-0.59546 2.0315-1.3707 2.7247-0.69323 0.77528-1.6664 1.3005-2.7239 1.37l-39.436 2.5921c0.32301 0.64946 0.75365 1.2598 1.2962 1.8024l24.04 24.04c2.6816 2.6816 6.999 2.6816 9.6806 0l36.948-36.948c2.6816-2.6816 2.682-6.9994 3.8e-4 -9.681l-24.04-24.04c-0.54274-0.54274-1.1532-0.97364-1.8028-1.2967z" fill="#e3dbdb"/>
    <path d="m279.87 104.95c0.33631 2.4507-0.39084 4.8662-2.3665 6.4427-13.908 14.563-28.189 28.779-42.7 42.742-2.4347 2.8779-6.828 2.7173-9.8616 1.0218 4.5911 5.1011 9.602 9.8191 14.403 14.725 18.039-0.7892 35.378-10.678 45.03-25.968 5.3301-8.2214 8.3931-17.825 9.1075-27.581-4.5878-4.5831-9.1757-9.1661-13.764-13.749 0.0502 0.7888 0.10045 1.5776 0.15068 2.3664z" fill="#916f6f"/>
   </g>
   <g transform="matrix(.55428 0 0 .55428 -22.519 237.96)" filter="url(#bm)">
    <circle cx="113.56" cy="250.75" r="56.575" fill="#ac9393"/>
    <path d="m134.61 221.4c-1.7747-1.7748-4.632-1.7748-6.4067-1e-5l-36.24 36.24c-1.7747 1.7747-1.7747 4.632 1e-5 6.4067l8.2987 8.2988c1.7748 1.7748 4.632 1.7748 6.4067 0l36.24-36.24c1.7747-1.7747 1.7747-4.632 0-6.4067l-8.2988-8.2988zm-46.451 40.339-5.2745 19.685 19.685-5.2744-14.411-14.411z" fill="#e3dbdb"/>
    <path d="m143.45 230.2c0.95466 1.7118 1.1548 4.1762-0.48325 5.5572-9.5192 9.9357-19.364 19.555-29.102 29.275-2.8738 2.7553-5.613 5.7072-8.6358 8.275-1.2234 0.62734-1.4189 2.6276-2.8529 2.8981-6.3407 1.6717-12.732 3.3766-19.042 5.1149 4.7558 5.2804 9.9318 10.182 14.915 15.251 3.5563 3.4468 6.903 7.1323 10.675 10.344 1.3714 0.55999 2.9784 0.17175 4.4368 0.32809 18.048 0.26053 35.856-8.931 46.228-23.68 5.701-7.9386 9.1406-17.387 10.253-27.076-8.7956-8.7568-17.532-17.627-26.392-26.287z" fill="#916f6f"/>
   </g>
   <g transform="matrix(.55428 0 0 .55428 -22.519 239.63)" filter="url(#bl)">
    <circle cx="113.56" cy="383.73" r="56.575" fill="#ac9393"/>
    <path d="m130.28 344.65c-5.7073-0.20009-10.906 2.9874-14.46 7.2642-11.379 11.313-22.956 22.448-33.99 34.093-7.006 8.4326-6.4143 21.853 1.2182 29.692 7.6402 8.5912 22.102 9.6004 30.792 2.0554 12.287-11.914 24.439-23.987 36.345-36.279-0.70793-1.8465-2.4686-3.2368-4.0121-4.3867-1.7622 0.10304-2.8932 2.5869-4.3932 3.5993-11.184 10.901-21.959 22.25-33.381 32.891-6.8605 4.6013-16.938 2.8081-21.735-3.9333-4.8999-6.4428-3.7982-16.409 2.4545-21.585 11.373-11.544 22.733-23.122 34.417-34.351 5.6655-4.8836 15.576-1.9063 17.586 5.3379 1.5513 4.7838-0.60682 10.062-4.5677 13.078-9.0089 8.9576-17.75 18.231-27.14 26.778-4.5652 2.6338-10.724-2.3165-9.0939-7.3463 2.0054-3.9776 6.0412-6.61 8.9051-9.9656 6.9491-6.9681 13.908-13.927 20.859-20.894-1.8144-1.0631-3.6558-4.9902-5.4502-3.9813-9.6671 9.8682-19.792 19.337-29.112 29.519-4.0026 5.7771-1.9378 14.373 4.0193 17.977 5.2221 3.6155 12.931 2.383 16.862-2.5834 9.608-9.498 19.407-18.843 28.553-28.782 5.7529-7.5735 3.781-19.586-4.112-24.922-3.0513-2.1824-6.799-3.4223-10.564-3.2744z" fill="#e3dbdb"/>
    <path d="m129.05 351.55c-4.5613 0.18615-7.4017 4.503-10.629 7.1756-10.61 10.644-21.476 21.058-31.633 32.137-5.883 7.205-3.0472 19.166 5.1865 23.312 4.1627 2.0737 9.3358 2.4689 13.699 0.85456 6.4979-4.1485 11.477-10.231 17.093-15.444 7.7221-7.5114 15.23-15.378 23.251-22.502 1.5741 1.0325 3.2453 2.5139 3.9277 4.2642-10.185 11.182-21.164 21.635-31.964 32.225-3.9129 3.879-8.1035 8.2371-13.959 8.6787-5.6284 0.8724-11.519 0.196-16.461-2.7826-2.4079-1.315 1.5009 1.9539 1.8555 2.5616 5.875 6.0604 11.835 12.038 17.757 18.052 8.5258 0.075 17.294 0.1021 25.327-3.1819 17.473-6.0335 31.255-21.237 35.737-39.147 2.0654-6.8466 1.6848-14.047 1.6969-21.105-8.0809-7.9312-15.955-16.176-24.256-23.822 3.1158 6.0915 3.6732 14.216-0.73617 19.846-9.5547 10.205-19.428 20.133-29.591 29.733-2.4719 2.6085-5.9246 4.0379-9.523 3.6558-9.5553 0.3499-16.191-12.722-9.8422-20.025 8.4426-9.5278 17.691-18.319 26.74-27.266 1.0947-0.59411 2.1999-3.2783 3.5427-1.6559 0.97643 1.2526 4.2646 2.6927 3.3728 4.0855-9.3382 9.61-19.184 18.751-28.073 28.784-2.026 1.826-1.8164 4.7244-0.26045 6.7856 2.2043 3.3101 7.7114 3.6603 10.062 0.29131 9.3205-9.102 18.8-18.083 27.532-27.756 4.4955-4.7744 2.9303-13.361-2.8228-16.44-2.1141-1.2488-4.6367-1.3667-7.0282-1.3138z" fill="#916f6f"/>
   </g>
   <g transform="matrix(.55428 0 0 .55428 -22.519 238.73)" filter="url(#bk)">
    <circle cx="113.56" cy="113.35" r="56.575" fill="#ac9393"/>
    <path d="m142.58 85.472a21.748 21.748 0 0 1 -3.1e-4 30.757 21.748 21.748 0 0 1 -29.652 1.0282l-4.8004 4.8004 1.3701 1.3701-24.167 24.167-7.1559-7.1559 24.167-24.167 1.3701 1.3701 5.1442-5.1442a21.748 21.748 0 0 1 2.9678 -27.025 21.748 21.748 0 0 1 30.757 -3.2e-4zm-3.3499 3.3499a17.011 17.011 0 0 0 -24.057 3.2e-4 17.011 17.011 0 0 0 0 24.057 17.011 17.011 0 0 0 24.057 3.2e-4 17.011 17.011 0 0 0 0 -24.057z" fill="#e3dbdb"/>
    <path d="m146.05 89.549c2.1743 4.505 3.4297 9.5928 2.5992 14.62-1.479 11.823-14.093 20.709-25.721 17.987-3.5888-0.69875-6.9558-2.4176-9.8344-4.5333-1.6797 1.1969-3.5118 2.7764-4.4364 4.6252 1.3064 1.5054-1.3335 2.8311-2.0532 3.9868-6.9469 7.0842-14.061 14.003-21.085 21.01 7.4701 7.4853 14.94 14.971 22.41 22.456 8.5651 0.0888 17.348-0.14054 25.374-3.508 20.307-7.4141 35.449-27.336 36.494-49.02 0.56385-2.4625 0.12413-4.5511-2.0858-5.9803-7.2075-7.2029-14.25-14.75-21.661-21.645z" fill="#916f6f"/>
    <path d="m123.48 90.617v6.9215h-6.9223v6.6209h6.9223v6.9223h6.6209v-6.9223h6.9223v-6.6209h-6.9223v-6.9215h-6.6209z" fill="#e3dbdb"/>
   </g>
   <g transform="matrix(.55428 0 0 .55428 -22.519 238.41)" filter="url(#bj)">
    <circle cx="237.73" cy="249.28" r="56.575" fill="#ac9393"/>
    <path d="m266.75 221.4a21.748 21.748 0 0 1 -3.1e-4 30.757 21.748 21.748 0 0 1 -29.652 1.0282l-4.8004 4.8004 1.3701 1.3701-24.167 24.167-7.1559-7.1559 24.167-24.167 1.3701 1.3701 5.1442-5.1442a21.748 21.748 0 0 1 2.9678 -27.025 21.748 21.748 0 0 1 30.757 -3.2e-4zm-3.3499 3.3499a17.011 17.011 0 0 0 -24.057 3.2e-4 17.011 17.011 0 0 0 0 24.057 17.011 17.011 0 0 0 24.057 3.2e-4 17.011 17.011 0 0 0 0 -24.057z" fill="#e3dbdb"/>
    <path d="m270.23 225.48c2.1743 4.505 3.4297 9.5928 2.5992 14.62-1.479 11.823-14.093 20.709-25.721 17.987-3.5888-0.69875-6.9558-2.4176-9.8344-4.5333-1.6797 1.1969-3.5118 2.7764-4.4364 4.6252 1.3064 1.5054-1.3335 2.8311-2.0532 3.9868-6.9469 7.0842-14.061 14.003-21.085 21.01 7.4701 7.4853 14.94 14.971 22.41 22.456 8.5651 0.0888 17.348-0.14054 25.374-3.508 20.307-7.4141 35.449-27.336 36.494-49.02 0.56385-2.4625 0.12413-4.5511-2.0858-5.9803-7.2075-7.2029-14.25-14.75-21.661-21.645z" fill="#916f6f"/>
    <rect transform="rotate(90)" x="233.35" y="-261.82" width="6.621" height="20.465" fill="#e3dbdb"/>
   </g>
   <g transform="matrix(.55428 0 0 .55428 -22.519 239.51)" filter="url(#bi)">
    <circle cx="237.73" cy="382.64" r="56.575" fill="#ac9393"/>
    <path d="m236.81 361.97-35.799 20.668 35.799 20.67v-20.621l35.717 20.621v-41.338l-35.717 20.619v-20.619z" fill="#e3dbdb"/>
    <path d="m272.77 382.42c-0.18724 6.7571 0.34567 13.821-0.55115 20.398-11.824-6.2642-23.334-13.444-35.018-19.747-0.55503 6.5281 0.37926 13.42-0.72103 19.747-11.84-6.2871-23.404-13.489-35.111-19.763 17.496 18.059 35.449 35.671 53.178 53.501 19.316-5.9575 34.69-22.872 38.465-42.776 0.48361-3.4323 1.5454-7.3282 0.96435-10.581-7.0687-7.0631-14.137-14.126-21.206-21.189v20.411z" fill="#916f6f"/>
   </g>
   <g transform="matrix(.55428 0 0 .55428 -22.519 238.77)" filter="url(#bh)">
    <circle transform="scale(-1,1)" cx="-237.73" cy="519.31" r="56.575" fill="#ac9393"/>
    <path d="m238.66 498.64 35.799 20.668-35.799 20.67v-20.621l-35.717 20.621v-41.338l35.717 20.619v-20.619z" fill="#e3dbdb"/>
    <path d="m274.33 519.33c-11.835 6.9027-23.717 13.724-35.577 20.584-0.0499-6.661 0.0303-13.324-0.12202-19.984 0.11727-0.64538-0.3161-0.43631-0.6412-0.16847-11.637 6.6951-23.3 13.393-34.886 20.146 11.06 11.236 22.223 22.373 33.403 33.491 0.87783 0.81283 1.6974 1.7858 2.6216 2.493 4.8178-0.25346 9.6341-0.88589 14.272-2.252 14.104-3.9988 26.439-13.776 33.58-26.576 1.9255-3.3854 3.4865-6.9736 4.6766-10.681-5.5962-5.5433-11.08-11.203-16.775-16.645-0.1769-0.13452-0.3365-0.34027-0.55186-0.40592z" fill="#916f6f"/>
   </g>
   <g transform="matrix(.55428 0 0 .55428 -22.519 239.86)" filter="url(#bg)">
    <circle transform="scale(-1,1)" cx="-110.73" cy="519.31" r="56.575" fill="#ac9393"/>
    <path transform="matrix(0 1 -1 0 721.91 357.04)" d="m184.18 630.15h-43.822l21.911-37.951z" fill="#e3dbdb"/>
    <path d="m110.95 530.13c-6.2762 3.6448-12.652 7.2731-18.873 10.917 8.962 9.2816 18.13 18.364 27.255 27.486 1.9228 1.8418 3.7376 3.83 5.7836 5.5244 4.6969-1.3947 9.3204-3.1222 13.564-5.6001 8.1993-4.6479 15.143-11.406 20.153-19.379 0.65437-0.55413-0.56778-0.96648-0.78809-1.4421-9.39-9.5061-18.894-18.898-28.348-28.341-6.2488 3.6115-12.498 7.223-18.746 10.835z" fill="#916f6f"/>
   </g>
   <g transform="matrix(.55428 0 0 .55428 -22.519 238.73)" filter="url(#bf)">
    <circle transform="scale(-1,1)" cx="-110.73" cy="657.35" r="56.575" fill="#ac9393"/>
    <path d="m89.712 631.42v51.935h17.311v-51.935h-17.311zm23.304 0v51.935h17.312v-51.935h-17.312z" fill="#e3dbdb"/>
    <path d="m106.97 657.34v26.04h-17.125c9.9437 9.9441 19.887 19.888 29.831 29.832 12.105-2.0174 23.567-7.9318 31.994-16.887 6.8975-7.2692 11.895-16.352 14.124-26.137 0.16738-0.94518 0.60596-2.0012 0.43395-2.9064-11.954-11.948-23.907-23.895-35.861-35.842v51.94h-17.337v-46.023c-2.0203-2.0186-4.0406-4.0373-6.0609-6.0559v26.039z" fill="#916f6f"/>
   </g>
   <g transform="matrix(.55428 0 0 .55428 -22.519 238.73)" filter="url(#be)">
    <circle transform="scale(-1,1)" cx="-242.37" cy="654.73" r="56.575" fill="#ac9393"/>
    <path d="m231.38 688.99c-8.9732-3.1294-16.579-9.877-20.124-17.855-6.2004-13.95-3.9451-27.842 6.3298-38.988 4.4896-4.8707 8.2699-5.7429 11.141-2.5705 2.561 2.8299 1.98 5.7756-1.9055 9.6612-15.051 15.051-5.4258 39.485 15.554 39.485s30.604-24.434 15.554-39.485c-3.9492-3.9492-4.5384-7.295-1.7319-9.8348 3.1896-2.8866 6.5526-2.0451 10.967 2.7442 10.275 11.147 12.53 25.038 6.3298 38.988-6.7324 15.147-26.204 23.403-42.113 17.855zm6.9964-34.255c-1.8221-1.8221-1.999-3.3316-1.999-17.057 0-8.4685 0.45277-15.904 1.0346-16.991 1.3616-2.5441 7.0399-2.6085 9.3051-0.10541 1.3862 1.5317 1.6541 4.2841 1.6541 16.991 0 13.831-0.17567 15.339-1.999 17.162-1.0994 1.0994-2.8985 1.999-3.998 1.999s-2.8985-0.89954-3.998-1.999z" fill="#e3dbdb"/>
    <path d="m269.66 634.85c3.3755 4.887 6.117 10.372 6.7722 16.371 2.1245 14.342-5.5522 30.036-19.108 35.852-10.955 5.4906-24.858 4.6597-34.769-2.6719-0.98606-0.79751-2.8448-1.7562-0.91492-0.0292 8.2297 8.35 16.282 16.912 24.949 24.808 3.0012 3.029 7.2391 0.57891 10.699-8.1e-4 20.624-5.4798 37.139-23.538 40.724-44.582 0.86439-2.531-2.7398-3.7276-3.9341-5.6438-8.1244-8.026-16.116-16.358-24.419-24.104z" fill="#916f6f"/>
   </g>
   <path d="m699.82 583.4c0.54831 2.1957 0.37614 4.4893 0.43263 6.7329-0.034 3.1218 0.0432 6.2492-0.14351 9.3666-0.0473 1.5195-1.2934 2.7906-2.7146 3.1632-1.2457 0.21344-2.4136-0.63786-3.1022-1.6042-0.68126-1.4208-0.54221-3.0598-0.6276-4.5932-0.0567-1.5997 0.0549-3.2112-0.0816-4.8039-0.34944 0.0227-0.63283-0.42448-0.90815-0.63989-0.92494-0.88192-1.845-1.8843-2.7718-2.696 0.61602 1.0203 0.35689 2.3161-0.32216 3.2357-1.1295 1.5716-2.6825 2.8248-3.5626 4.5792-1.115 1.9799-1.7844 4.2386-1.6644 6.5243-0.0775 4.561 2.7302 8.9724 6.8215 10.95 4.8397 2.3772 11.244 1.4907 14.983-2.4888 3.0578-3.1472 4.2417-7.96 2.9627-12.162-0.69053-2.4539-2.2025-4.5744-3.9583-6.3846-0.93546-1.0152-1.8095-2.4254-1.3494-3.8512 0.0771-0.35558 0.50641-0.67832 0.48411-0.97844-1.4915-1.4479-2.9081-2.9909-4.4774-4.35z" fill="#c75d57"/>
   <path d="m555.73 583.32c0.52246 1.9622 0.4189 4.0137 0.47187 6.0249-2e-3 3.165 0.0712 6.3342-0.10758 9.4957-0.0739 1.0148-0.20208 2.1646-1.0461 2.8539-0.62505 0.53773-1.3952 1.0621-2.2528 1.0334-1.1335-0.1431-2.1554-0.92475-2.7026-1.9117-0.44754-1.0418-0.38195-2.2115-0.46847-3.3213-0.0736-1.8281-0.0579-3.658-0.061-5.4871-1.2399-1.2277-2.4556-2.4829-3.7202-3.6838 0.47535 0.8926 0.45096 2.0162-0.096 2.8733-0.90847 1.525-2.3805 2.609-3.315 4.1183-1.8204 2.7502-2.6218 6.1965-1.9854 9.4521 0.73027 4.2021 3.7868 7.953 7.8387 9.3547 1.623 0.58694 3.357 0.86927 5.0826 0.76566 3.935-0.0159 7.812-2.0393 10.007-5.3174 1.5159-2.2237 2.3078-4.9405 2.1581-7.6328-0.0893-3.232-1.5694-6.3272-3.7903-8.6417-0.93841-1.0346-2.0748-2.1401-2.1377-3.6263-0.044-0.67428 0.23404-1.3242 0.67948-1.8205-1.517-1.5077-3.0258-3.0489-4.5546-4.5295z" fill="#65707c"/>
   <path d="m408.05 583.16c0.64378 1.9589 0.45395 4.0532 0.51439 6.0826 4e-3 3.2231 0.0464 6.4486-0.0668 9.67-0.084 1.0301-0.28833 2.1625-1.1343 2.855-0.77176 0.6868-1.8949 1.2701-2.92 0.7846-1.1763-0.47288-2.1713-1.5314-2.2685-2.8372-0.29639-2.5928-0.2061-5.2096-0.22876-7.8142-1.2908-1.2689-2.5859-2.6337-3.8866-3.8319 0.46407 0.68485 0.67169 1.5605 0.3965 2.3614-0.52068 1.6877-2.062 2.7213-3.0596 4.1018-1.7042 2.1909-2.747 4.9285-2.7381 7.719-0.19793 4.521 2.3868 9.0252 6.3845 11.144 3.9499 2.1291 9.0075 2.0323 12.883-0.22473 3.0496-1.7573 5.1654-4.9295 5.8033-8.3717 0.27163-1.3758 0.2383-2.8007 0.0759-4.1876-0.41144-2.8099-1.8253-5.408-3.7931-7.4336-0.93704-1.0246-2.0484-2.1671-2.0249-3.6554 1e-3 -0.64482 0.28758-1.2667 0.74465-1.7161-1.5597-1.5467-3.1012-3.1329-4.6813-4.6464z" fill="#916f6f"/>
   <path d="m260.5 583.33c0.55141 2.0976 0.41139 4.3026 0.48968 6.4529-0.018 3.2916 0.11674 6.5975-0.21078 9.8774-0.0671 1.5675-1.4516 2.7883-2.9232 3.0635-1.1747 0.013-2.2799-0.76979-2.9117-1.7233-0.67501-1.4319-0.43391-3.079-0.53884-4.6132-0.0302-2.0327-0.0476-4.0656-0.072-6.0984-0.37463 0.23032-0.7525 1.1624-1.1232 0.46423-0.89185-0.86853-1.7436-1.7943-2.6812-2.6067 0.5322 0.91974 0.60414 2.1059 2e-3 3.017-1.1476 1.8013-2.8869 3.165-3.8824 5.0785-2.4895 4.3428-2.0809 10.158 1.0904 14.052 2.1081 2.6881 5.4134 4.3249 8.7981 4.5691 2.2272 0.0585 4.5209-0.084 6.5588-1.0745 3.9324-1.7476 6.823-5.7201 7.1398-10.024 0.0432-1.806 0.0954-3.6638-0.59693-5.3718-0.75687-2.2979-2.2538-4.248-3.9231-5.9608-0.93472-1.036-1.7804-2.5998-1.0601-3.9759 0.38119-0.45243 0.52106-0.84139-0.0801-1.1837-1.3557-1.3132-2.6457-2.715-4.0755-3.942z" fill="#628361"/>
   <path d="m114.67 583.29c0.56649 2.416 0.39519 4.9272 0.48694 7.3898 6.7e-4 3.0883 0.0772 6.1922-0.26399 9.2661-0.18145 1.4578-1.5012 2.475-2.8533 2.7909-1.2575-0.0359-2.5201-0.85909-3.0555-2.0021-0.56313-1.8106-0.39018-3.7486-0.48784-5.6201-0.0192-1.0835-0.0373-2.167-0.0561-3.2504-1.231-1.2033-2.4498-2.5221-3.7049-3.64 0.52116 1.0117 0.49036 2.281-0.20678 3.2084-1.1321 1.6507-2.7406 2.9393-3.6802 4.733-2.4683 4.2375-2.2027 9.9253 0.8119 13.826 2.711 3.6917 7.5632 5.5088 12.05 4.7937 4.0308-0.47478 7.7259-3.0839 9.476-6.7523 0.94948-1.9003 1.3827-4.0334 1.2445-6.1539-0.0673-3.3584-1.716-6.543-4.0579-8.8928-1.0036-1.0908-2.1525-2.4826-1.7624-4.0763 0.1048-0.41941 0.38265-0.7602 0.61867-1.1116-1.5185-1.4993-3.0108-3.0587-4.5588-4.5087z" fill="#c79d5a"/>
   <path d="m110.14 281.63c-6.9516 6.8263-13.831 13.728-20.685 20.652-0.76526 0.59682-0.22022 0.65065 0.48939 0.52561 6.2226-0.40322 12.449-0.77174 18.667-1.231 0.48817-0.0713 0.14553-0.86657 0.3039-1.213 0.43568-6.2395 0.89183-12.501 1.225-18.733z" fill="#c79d5a"/>
   <path d="m114.18 281.34c-0.51301 5.9802-0.82294 12.013-1.2636 18.012-0.15326 1.5028-0.12602 3.0464-0.45259 4.5194-0.48544 0.89216-1.4014 1.5782-2.4536 1.5147-7.1169 0.5612-14.252 0.89374-21.366 1.4876 0.16303 0.52324 0.7446 0.92868 1.0986 1.3716 4.0844 4.1819 8.2175 8.3184 12.415 12.386 0.8268 0.79136 1.7639 1.6868 3.0043 1.5918 1.0519 0.0283 2.0936-0.37687 2.7523-1.2161 6.9309-6.7788 13.796-13.626 20.574-20.558 1.0933-0.95204 1.2671-2.6822 0.71832-3.9666-1.1955-1.7612-2.8527-3.1504-4.3029-4.6958-3.4246-3.392-6.7566-6.8817-10.285-10.167-0.13675-0.0947-0.26757-0.26217-0.44002-0.28081z" fill="#c79d5a"/>
   <path d="m47.778 285.25c-4.268-0.0248-8.1975 3.3077-9.0058 7.475-0.59299 3.0532 0.31925 6.3957 2.5841 8.5706 1.9143 1.9407 4.6993 2.9554 7.4146 2.665 4.1751-0.20008 7.8667-3.6478 8.4759-7.7651 0.65427-3.5247-0.98197-7.2714-3.9164-9.2971-1.6023-1.1479-3.5932-1.6813-5.5523-1.6483zm-0.01451 3.7029h1.8082v3.8077c1.2869 0.0177 2.5739 0.0354 3.8608 0.0531 0.01765 1.2218 0.03541 2.4435 0.05326 3.6653h-3.9141v3.8119h-3.6164v-3.8119h-3.9097v-3.7142h3.9097v-3.8119h1.8082z" fill="#c79d5a"/>
   <path d="m255.93 281.75c-6.2095 6.0205-12.296 12.169-18.406 18.291-0.87708 0.9161-1.8451 1.8007-2.6553 2.7499 2.1585 0.0298 4.3305-0.23469 6.4928-0.33757 4.4373-0.32025 8.8838-0.52898 13.317-0.89967 0.5184-6.4761 0.87884-12.965 1.2488-19.451-2e-3 -0.11105 0.0236-0.25637 3e-3 -0.35249z" fill="#628361"/>
   <path d="m278.38 295.64c0.10748 1.4135 0.3891 3.0594-0.67541 4.2058-2.8704 3.1895-5.9611 6.1745-8.9598 9.2426-5.2069 5.2037-10.374 10.452-15.739 15.493-1.24 1.0622-3.0911 0.96433-4.5381 0.41445-0.47052-0.16032 0.07 0.3361 0.1573 0.44118 2.3989 2.498 4.8643 4.9313 7.2963 7.3971 7.5923-0.23513 14.989-3.5141 20.459-8.752 5.6616-5.452 9.0772-13.077 9.6079-20.901-2.5344-2.5088-5.038-5.0996-7.6086-7.5414z" fill="#628361"/>
   <path d="m193.68 285.28c-4.4137-0.12933-8.4636 3.4865-9.1211 7.7997-0.34981 2.2148 0.0535 4.5565 1.2703 6.4576 1.7307 2.9575 5.2498 4.7568 8.6626 4.4387 4.8135-0.15523 8.9921-4.6973 8.7003-9.5169 0.0974-4.774-4.1472-9.1907-8.9425-9.1749-0.18978-5e-3 -0.37966-6e-3 -0.5695-4e-3zm-0.0617 3.6735h1.8571v3.8119h3.8119v3.7142h-3.8119v3.8119h-3.7142v-3.8119h-3.8119v-3.7142h3.8119v-3.8119h1.8571z" fill="#628361"/>
   <path d="m260.03 281.35c-0.43967 4.8597-0.68466 9.7756-1.0355 14.658-0.20509 2.57-0.2966 5.1603-0.60776 7.7154-0.4711 0.91006-1.3458 1.7335-2.4416 1.6557-7.142 0.56074-14.302 0.90238-21.44 1.4954 0.084 0.4344 0.60357 0.77408 0.87682 1.1389 4.1106 4.2208 8.28 8.386 12.496 12.501 0.86643 0.82356 1.8229 1.7979 3.1247 1.7084 1.203 0.0504 2.313-0.5524 3.062-1.4675 6.3525-6.2795 12.681-12.584 18.942-18.955 0.80092-0.95039 1.9156-1.7696 2.2763-3.0027-7e-3 -0.98014 0.17188-2.0986-0.59853-2.8687-2.3256-2.707-4.9665-5.124-7.4504-7.6834-2.3216-2.2721-4.5335-4.6677-6.9882-6.797-0.0656-0.0371-0.13485-0.10516-0.21648-0.0985z" fill="#628361"/>
   <path d="m341.38 285.25c-3.9406-0.0378-7.7242 2.677-8.8712 6.4611-0.59948 1.869-0.55332 3.937-0.0128 5.812 1.098 3.5211 4.4803 6.2275 8.1697 6.4412 1.8703 0.1016 3.7986-0.17609 5.4147-1.1778 3.3101-1.8326 5.2659-5.7934 4.6422-9.5351-0.5224-3.9653-3.8529-7.3396-7.8178-7.8909-0.50429-0.0769-1.0146-0.11474-1.5247-0.11053zm-0.21381 3.6972h1.8571v3.8119h3.9097v3.7142h-3.9097v3.8119h-3.7142v-3.8119h-3.8119v-3.7142h3.8119v-3.8119h1.8571z" fill="#916f6f"/>
   <path d="m403.57 281.67c-6.672 6.6047-13.325 13.229-19.914 19.917-0.31393 0.40412-0.87137 0.76272-1.0091 1.2368 6.4537-0.36801 12.911-0.78917 19.361-1.2504 0.60894 3e-3 0.24242-0.81459 0.38543-1.1719 0.38483-6.2488 0.83569-12.494 1.192-18.744l-0.0155 0.0124z" fill="#916f6f"/>
   <path d="m407.64 281.38c-0.19564 0.7397-0.1305 1.6086-0.22655 2.3947-0.45396 6.2655-0.75319 12.543-1.2873 18.802-0.0743 0.84786-0.1872 1.8205-1.0125 2.2847-0.83627 0.75452-2.062 0.47525-3.086 0.6517-6.6535 0.46634-13.334 0.86839-19.972 1.3463 0.94584 1.3137 2.2146 2.3911 3.3207 3.5784 3.7601 3.7677 7.5095 7.5591 11.324 11.264 0.75468 0.37448 1.5744 0.55465 2.4166 0.45206 1.2689 0.0718 2.0934-1.1073 2.9818-1.8263 5.6431-5.4795 11.163-11.085 16.723-16.649 1.1846-1.2571 2.5046-2.4071 3.5889-3.7473 0.87092-1.4244 0.70004-3.4647-0.6065-4.5721-4.4964-4.6282-9.0681-9.185-13.687-13.691-0.1331-0.12258-0.28397-0.27959-0.47611-0.28941z" fill="#916f6f"/>
   <path d="m488.84 285.24c-3.9436 0.0235-7.6616 2.819-8.763 6.6096-1.2445 3.8624 0.36051 8.4358 3.8052 10.608 1.6562 1.143 3.6884 1.7072 5.696 1.4908 3.7292-0.0137 7.1527-2.7411 8.3408-6.2204 1.4499-3.9032-0.12539-8.6365-3.6154-10.903-1.5992-1.079-3.5369-1.6315-5.4637-1.5855zm-0.0288 3.7073h1.8571v3.8119h3.8119v3.7142h-3.8119v3.8119h-3.7142v-3.8119h-3.8119v-3.7142h3.8119v-3.8119h1.8571z" fill="#65707c"/>
   <path d="m551.09 281.92c-1.5721 1.2358-2.9064 2.7642-4.3598 4.1403-5.505 5.4946-11.04 10.961-16.486 16.513-0.50812 0.57177 0.88504 0.10599 1.252 0.1979 6.1356-0.39975 12.276-0.74797 18.406-1.2259 0.50642-6.2811 0.85111-12.576 1.2329-18.866-0.062-0.17761 0.15801-0.67793-0.0443-0.75948z" fill="#65707c"/>
   <path d="m555.25 281.34c-0.51006 5.9805-0.82079 12.018-1.2612 18.02-0.15355 1.4987-0.12437 3.0388-0.45271 4.5073-0.49552 0.91194-1.4424 1.6003-2.5151 1.5356-7.1018 0.53035-14.22 0.87745-21.315 1.4726 0.40748 0.80275 1.214 1.4028 1.8073 2.0936 3.9703 4.0039 7.9249 8.0269 12.002 11.922 0.73156 0.72069 1.6225 1.4059 2.7114 1.3205 1.0862 0.0319 2.1601-0.39794 2.8362-1.2644 6.6927-6.5959 13.361-13.218 19.931-19.936 0.72165-0.7198 1.5074-1.5016 1.5421-2.5923 0.16915-1.0704-0.17544-2.17-0.97494-2.9132-3.3621-3.6187-6.9306-7.0404-10.405-10.551-1.2872-1.2062-2.4543-2.5771-3.8811-3.6139l-0.0137-2e-3 -0.0117 7.6e-4z" fill="#65707c"/>
   <path d="m633.03 285.24c-3.6851-3e-3 -7.2642 2.3636-8.5782 5.8305-0.88352 2.0225-0.93151 4.3928-0.25541 6.482 1.2241 3.8367 5.1459 6.7414 9.219 6.4171 2.0332 0.0539 3.9949-0.76535 5.5813-1.9957 2.4468-1.9596 3.8513-5.1683 3.4799-8.3001-0.33903-3.9629-3.4994-7.4982-7.4162-8.2399-0.66722-0.13744-1.3493-0.20213-2.0304-0.19395zm-0.1428 3.7077h1.8571v3.8119h3.8119v3.7142h-3.8119v3.8119h-3.7142v-3.8119h-3.8119v-3.7142h3.8119v-3.8119h1.8571z" fill="#c75d57"/>
   <path d="m684.74 292.18c-3.5359 3.55-7.1195 7.0852-10.61 10.661 3.5174-0.13099 7.0321-0.44938 10.549-0.65049 3.1071-0.2222 6.2299-0.37031 9.3271-0.64383 0.48325-6.6546 0.82848-13.32 1.3499-19.971-3.5386 3.5349-7.0771 7.0699-10.616 10.605z" fill="#c75d57"/>
   <path d="m699.31 281.33c-0.59148 7.3299-0.93721 14.716-1.5473 22.059-0.26593 1.1821-1.4228 2.0803-2.6409 2.0048-7.1243 0.54108-14.262 0.90415-21.385 1.4598 0.66672 1.0132 1.6692 1.7758 2.4774 2.6799 4.0779 4.0772 8.0999 8.2159 12.313 12.153 1.523 1.0009 3.7185 0.52739 4.8476-0.86845 6.6014-6.547 13.193-13.105 19.695-19.751 0.81578-0.80596 1.7014-1.7692 1.5612-3.014 0.1525-1.2156-0.60011-2.2468-1.4388-3.0322-4.2422-4.3408-8.5176-8.6517-12.871-12.881-0.3271-0.27155-0.61736-0.64443-1.0117-0.81113z" fill="#c75d57"/>
   <path d="m116.61 360.26c-4.1134 0.01-7.9156 3.0768-8.9217 7.0439-0.32099 1.5845-0.37729 3.2782 0.0481 4.8487 0.97375 3.5725 4.2057 6.4188 7.8991 6.8188 1.7751 0.0734 3.6299 0.029 5.2293-0.84495 3.5593-1.6376 5.8042-5.6772 5.2716-9.5668-0.3784-3.9826-3.6106-7.4461-7.5435-8.1382-0.65276-0.12432-1.3187-0.17744-1.9829-0.16151zm0.31442 7.5227h5.7179v3.6164h-11.436v-3.6164h5.7179z" fill="#c79d5a"/>
   <path d="m262.46 360.26c-4.2857 6e-3 -8.243 3.3479-9.0214 7.5514-0.8776 4.0454 1.3103 8.4868 5.0478 10.263 1.4566 0.75568 3.1058 1.0481 4.7357 0.89647 3.3536-0.0218 6.4726-2.2631 7.9092-5.2399 1.8842-3.7815 0.79959-8.7697-2.5414-11.378-1.7098-1.3976-3.9217-2.1555-6.1299-2.0929zm0.31442 7.5227h5.7179v3.6164h-11.436v-3.6164h5.7179z" fill="#628361"/>
   <path d="m410.07 360.27c-3.7027 0.0224-7.2506 2.4611-8.5346 5.9467-0.91054 2.2254-0.85695 4.8339 0.0643 7.0471 1.4073 3.5119 5.1129 5.9383 8.9029 5.7456 4.643 0.0353 8.8689-3.9765 9.11-8.6093 0.36028-3.6992-1.7433-7.4602-5.0719-9.1064-1.3753-0.70437-2.9265-1.056-4.4707-1.0237zm0.30621 7.4614h5.669c0.0177 1.2218 0.0354 2.4435 0.0533 3.6653h-11.445c0.0179-1.2218 0.0356-2.4436 0.0533-3.6653h5.669z" fill="#916f6f"/>
   <path d="m557.58 360.31c-4.0906-0.0587-7.8846 3.1072-8.8193 7.0473-0.36578 1.6198-0.31471 3.3507 0.0953 4.9562 1.1188 3.9006 5.0167 6.9283 9.1241 6.671 3.7849 0.14656 7.3642-2.4847 8.6761-5.9841 1.3209-3.3757 0.49006-7.5126-2.1736-10.011-1.7858-1.8198-4.3414-2.8827-6.9026-2.6795zm6.0833 9.2299v1.8579h-11.342c0.0179-1.2218 0.0356-2.4436 0.0533-3.6653l11.289-0.0504v1.8579z" fill="#65707c"/>
   <path d="m701.49 360.27c-3.9409 0.1187-7.5789 3.0284-8.5826 6.8404-0.46124 1.77-0.43944 3.6978 0.10328 5.4478 1.2418 3.915 5.2797 6.8067 9.417 6.437 3.9781-0.0489 7.5823-3.062 8.6026-6.8633 0.86452-3.1894-0.0194-6.8273-2.4439-9.1179-1.7152-1.801-4.1788-2.7818-6.6572-2.7415-0.1464-3e-3 -0.29284-5e-3 -0.43927-2e-3zm0.58454 7.5124h5.669v3.6164h-11.338v-3.6164h5.669z" fill="#c75d57"/>
   <path d="m27.942 381.4c-0.52532 0.54807-1.0037 1.14-1.5049 1.7102 2.644 2.6347 5.2673 5.2907 7.9327 7.9036 0.49154-0.2419 0.70931-0.81388 1.0547-1.2154 0.26442-0.26469 0.20856-0.27837-0.13637-0.19155-0.72805 0.10492-1.5308-0.0315-2.0532-0.59009-1.5464-1.4427-3.0139-2.9686-4.4987-4.4742-0.47347-0.48345-0.99186-1.0254-1.0012-1.7484-0.05133-0.47916 0.0597-0.94913 0.20684-1.3942z" fill="#c79d5a"/>
   <path d="m321.44 381.36c-0.55354 0.54785-1.0728 1.1297-1.6089 1.6947 2.6605 2.6542 5.3055 5.329 7.9813 7.9648 0.61088-0.2882 0.79024-1.0073 1.2492-1.4566 0.0301-0.0741-0.22045 0.0593-0.28652 0.0468-0.76765 0.14194-1.62-0.0585-2.1663-0.63871-1.4645-1.392-2.8692-2.8457-4.2968-4.2753-0.40177-0.4218-0.87952-0.82074-1.0311-1.4098-0.19974-0.62654-0.118-1.3434 0.15902-1.926z" fill="#916f6f"/>
   <path d="m468.92 381.61c-0.46375 0.51629-0.88758 1.0676-1.3309 1.6016 2.6147 2.6031 5.2117 5.2245 7.8446 7.809 0.50483-0.25085 0.73205-0.83631 1.0848-1.2519 0.20346-0.22918 0.32323-0.32057-0.043-0.18756-0.83559 0.20963-1.7754-0.0601-2.3438-0.71578-1.6547-1.6112-3.3109-3.2244-4.8874-4.9126-0.52046-0.65293-0.53711-1.5696-0.32286-2.343l-2e-3 2.8e-4z" fill="#65707c"/>
   <path d="m613.21 381.24c-0.56092 0.59509-1.1203 1.1936-1.6694 1.7986 0.42575 0.47034 0.88618 0.90948 1.3297 1.3634 2.202 2.2068 4.4033 4.4146 6.6179 6.6087 0.16517-0.0342 0.30765-0.16634 0.42368-0.28974 0.31672-0.34786 0.49084-0.80637 0.83266-1.1333 0.0236-0.0303 0.0984-0.0577 0.0994-0.0882-0.27198 0.0867-0.55431 0.1448-0.84142 0.14013-0.57162 0.0234-1.1458-0.1857-1.5876-0.54439-1.5652-1.5349-3.113-3.0876-4.659-4.6418-0.22708-0.22348-0.45785-0.45079-0.59845-0.74168-0.38948-0.71919-0.39185-1.6273-6e-3 -2.3485 0.0189-0.0389 0.0494-0.0866 0.059-0.12328z" fill="#c75d57"/>
  </g>
 </g>
</svg>
